<?xml version="1.0" encoding="UTF-8"?>
<svg xmlns="http://www.w3.org/2000/svg" xmlns:xlink="http://www.w3.org/1999/xlink" viewBox="0 0 768 768">
  <defs>
    <style>
      .cls-1 {
        fill: url(#linear-gradient-2);
      }

      .cls-2 {
        fill: url(#linear-gradient-10);
      }

      .cls-3 {
        fill: url(#linear-gradient-12);
      }

      .cls-4 {
        fill: url(#radial-gradient);
      }

      .cls-4, .cls-5 {
        mix-blend-mode: multiply;
      }

      .cls-6 {
        fill: #fff;
      }

      .cls-7 {
        fill: none;
      }

      .cls-8 {
        fill: url(#linear-gradient-4);
      }

      .cls-9 {
        fill: url(#linear-gradient-3);
      }

      .cls-10 {
        clip-path: url(#clippath-1);
      }

      .cls-11 {
        fill: url(#linear-gradient-5);
      }

      .cls-12 {
        isolation: isolate;
      }

      .cls-13 {
        fill: url(#linear-gradient-8);
      }

      .cls-14 {
        fill: url(#linear-gradient-7);
      }

      .cls-15 {
        fill: url(#linear-gradient-9);
      }

      .cls-16 {
        fill: url(#linear-gradient-11);
      }

      .cls-17 {
        fill: url(#linear-gradient-6);
      }

      .cls-18 {
        fill: #00519e;
      }

      .cls-19 {
        clip-path: url(#clippath-2);
      }

      .cls-20 {
        fill: url(#linear-gradient);
      }

      .cls-21 {
        clip-path: url(#clippath);
      }
    </style>
    <clipPath id="clippath">
      <rect class="cls-7" x="125.54" y="221.62" width="557.62" height="600.51"/>
    </clipPath>
    <clipPath id="clippath-1">
      <rect class="cls-7" y="423.58" width="524.29" height="349.53"/>
    </clipPath>
    <linearGradient id="linear-gradient" x1="188.21" y1="399.05" x2="188.21" y2="607.97" gradientUnits="userSpaceOnUse">
      <stop offset="0" stop-color="#ffd83b"/>
      <stop offset="1" stop-color="#ff8c3b"/>
    </linearGradient>
    <linearGradient id="linear-gradient-2" x1="168.72" y1="510.6" x2="168.72" y2="799.82" gradientUnits="userSpaceOnUse">
      <stop offset="0" stop-color="#2c8a41"/>
      <stop offset="1" stop-color="#1ce449"/>
    </linearGradient>
    <linearGradient id="linear-gradient-3" x1="184.05" y1="445.97" x2="184.05" y2="616.47" xlink:href="#linear-gradient"/>
    <linearGradient id="linear-gradient-4" x1="163.99" y1="515.01" x2="163.99" y2="773.18" xlink:href="#linear-gradient-2"/>
    <linearGradient id="linear-gradient-5" x1="179.96" y1="487.87" x2="179.96" y2="628.94" xlink:href="#linear-gradient"/>
    <linearGradient id="linear-gradient-6" x1="161.73" y1="520.13" x2="161.73" y2="743.41" xlink:href="#linear-gradient-2"/>
    <clipPath id="clippath-2">
      <rect class="cls-7" x="232.89" y="408.48" width="535.11" height="356.74" transform="translate(1000.89 1173.7) rotate(-180)"/>
    </clipPath>
    <linearGradient id="linear-gradient-7" x1="1854.98" y1="383.45" x2="1854.98" y2="596.68" gradientTransform="translate(2430.88) rotate(-180) scale(1 -1)" xlink:href="#linear-gradient"/>
    <linearGradient id="linear-gradient-8" x1="1835.08" y1="497.3" x2="1835.08" y2="792.48" gradientTransform="translate(2430.88) rotate(-180) scale(1 -1)" xlink:href="#linear-gradient-2"/>
    <linearGradient id="linear-gradient-9" x1="1850.73" y1="431.34" x2="1850.73" y2="605.36" gradientTransform="translate(2430.88) rotate(-180) scale(1 -1)" xlink:href="#linear-gradient"/>
    <linearGradient id="linear-gradient-10" x1="1830.25" y1="501.8" x2="1830.25" y2="765.29" gradientTransform="translate(2430.88) rotate(-180) scale(1 -1)" xlink:href="#linear-gradient-2"/>
    <linearGradient id="linear-gradient-11" x1="1846.55" y1="474.11" x2="1846.55" y2="618.08" gradientTransform="translate(2430.88) rotate(-180) scale(1 -1)" xlink:href="#linear-gradient"/>
    <linearGradient id="linear-gradient-12" x1="1827.95" y1="507.02" x2="1827.95" y2="734.91" gradientTransform="translate(2430.88) rotate(-180) scale(1 -1)" xlink:href="#linear-gradient-2"/>
    <radialGradient id="radial-gradient" cx="373.66" cy="587.32" fx="373.66" fy="587.32" r="148.5" gradientUnits="userSpaceOnUse">
      <stop offset="0" stop-color="#d8e2eb"/>
      <stop offset=".64" stop-color="#cfd8e0"/>
      <stop offset=".68" stop-color="#d6dde4"/>
      <stop offset=".88" stop-color="#f3f5f7"/>
      <stop offset="1" stop-color="#fff"/>
    </radialGradient>
  </defs>
  <g class="cls-12">
    <g id="Layer_1" data-name="Layer 1">
      <g class="cls-21">
        <image width="5376" height="3072" transform="translate(636.73 259.86) rotate(-180) scale(.17 -.17)" xlink:href="C:\Users\dheer\Downloads\envato-labs-image-edit - 2026-01-22T155742.624.png"/>
      </g>
      <g class="cls-10">
        <g>
          <g>
            <path class="cls-6" d="M431.11,553.34c-8.96,10.23-17.89,20.57-26.57,28.21-11.63,10.2-27.33,10.58-41.06,2.97-16.15-8.97-28.32-23.08-47.06-29.91-17.41-6.31-43.19-2.17-65.58,8.12-24.39,11.23-44.38,27.78-65.38,35.76-18.9,7.14-40.79,1.95-58.91-10.73-19.81-13.88-36.91-34.74-63.56-41.54-13.59-3.43-30.1-1-48.55,6.77-19.75,8.33-41.57,22.53-64.49,40.92-27.48,40.36-58.03,82.09-46.93,115.98,23.09-18.82,45.97-34.64,67.28-46.26,19.91-10.84,38.19-17.84,54.38-19.25,30.91-2.64,57.83,10.66,84.59,16.77,24.53,5.57,47.87-.76,64.95-17.72,19.1-19.03,36.45-43.77,61.63-60.39,23.63-15.56,50.82-20.92,68.09-14.19,19.24,7.55,32.35,24.59,50.21,37.94,16,11.93,33.27,17.78,42.97,10.54,9.96-7.48,15.86-23.43,24.01-35.23.76-9.29,5.8-19.06,12.36-28.77h-2.39Z"/>
            <path class="cls-20" d="M422.19,553.34c-15.22,13.67-32.49,20.13-46.67,16.25-17.36-4.8-29.46-17.85-47-25.66-16.31-7.23-38.76-5.99-57.18-.15-21.01,6.67-40.04,15.95-57.91,15.01-9.92-.54-19.7-3.97-28.79-9.7-10.39-6.57-20.15-16.2-30.47-27.41-11.84-12.85-24.22-27.15-38.04-40.24-15.01-14.21-31.18-26.77-47.93-34.88-16.65-8.03-33.58-10.12-48.08-4.65-16.72,6.35-31.72,22.06-47.7,42.55,16.52,36.26-.8,78.36-27.45,116.65,23.09-18.33,45.19-32.61,65.2-41.17,18.68-7.98,35.38-10.73,49.11-7.65,26.85,6.08,44.42,26.25,64.73,39.57,18.71,12.24,40.98,16.8,59.93,9.15,21.13-8.58,41.14-25.55,65.71-37.08,22.61-10.59,48.51-14.8,65.89-8.46,18.75,6.88,30.91,21.15,47.07,30.37,13.78,7.84,29.47,7.79,40.85-2.23,9.17-8.1,18.53-19.39,27.98-30.27h-9.26Z"/>
            <path class="cls-1" d="M-6.83,795.37c19.82-21.81,37.58-40.35,54.05-53.55,15.35-12.29,29.88-20.04,43.62-21.91,27.57-3.69,52.27,7.99,71.62,8.03,9.12,0,17.46-2.71,23.72-8.7,6.81-6.53,11.67-17.02,15.26-29.53,8.25-28.8,12.21-63.43,32.27-86.38,18.4-20.95,46.51-29.33,64.96-23.16,20.48,6.92,36.07,26.2,57.93,43.8,20.87,16.79,43.17,29.13,57.51,25.63,11.83-2.94,17.31-16.99,20.96-28.05-7.7-13.22-15.37-25.69-13.87-40.3-8.26,11.81-14.25,27.77-24.21,35.34-9.67,7.3-26.87,1.58-42.78-10.26-17.79-13.25-30.84-30.23-50.07-37.77-17.27-6.72-44.44-1.39-68.11,14.06-25.22,16.51-42.71,41.05-61.95,59.86-17.21,16.77-40.66,22.88-65.22,17.2-26.78-6.23-53.65-19.56-84.59-17.02-16.22,1.36-34.56,8.3-54.52,19.08-21.38,11.55-44.31,27.29-67.39,46.04,10.97,37.68,55.91,60,90.81,87.57Z"/>
          </g>
          <g class="cls-5">
            <path class="cls-6" d="M431.79,553.34c-9.94,11.5-19.68,23.8-29.34,32.34-11.16,9.83-26.85,9.52-40.69,1.43-16.17-9.47-28.33-23.9-47.09-30.81-17.36-6.35-43.36-2.05-66.14,8.83-24.76,11.84-44.79,29.24-66.04,38.43-19.01,8.17-41.65,4.21-60.96-7.61-20.86-12.79-38.98-32.28-66.08-37.62-13.91-2.71-30.8.38-49.7,8.57-20.26,8.78-42.58,23.12-65.77,41.37-21.67,30.83-42.46,62.22-39.5,89.96,23.03-18.41,46.12-33.84,67.71-45.11,20.17-10.52,38.69-17.2,54.97-18.32,30.98-2.08,57.46,11.44,84.25,18.24,24.62,6.22,48.5,1.16,66.24-14.72,19.83-17.81,37.91-41.53,63.3-57.53,23.77-14.95,50.86-20.18,68.11-13.5,19.15,7.47,32.02,24.16,49.49,37,15.57,11.42,32.45,16.57,42.04,9.03,10.01-7.93,16.46-23.97,25.23-35.89,1.65-7.96,6.09-16.08,11.58-24.09h-1.59Z"/>
            <path class="cls-9" d="M426.23,553.34c-3.44,3.38-6.86,6.62-10.22,9.63-14.32,12.85-31.25,17.71-45.54,12.55-16.9-6.16-28.91-19.74-46.77-27.42-16.52-7.06-40.16-4.92-59.92,2.43-22.27,8.3-41.08,19.99-59.22,21.53-18.96,1.56-36.84-10.3-52.75-27.86-19.32-21.33-40.5-49.03-69.79-61.52-30.43-12.88-65.33,4.51-101.59,40.96-1.79,29.74-22.94,59.6-44.4,90.21,23.26-18.21,45.77-32.59,66.22-41.55,19.08-8.34,36.14-11.68,50.2-9.25,27.33,4.79,45.93,23.77,67.24,36.15,19.78,11.46,42.69,14.92,61.73,6.33,21.32-9.67,41.35-27.4,66.22-39.47,22.94-11.12,49.03-15.47,66.37-9.09,18.77,6.95,30.94,21.51,47.13,31.17,13.9,8.27,29.59,8.83,40.56-.86,10.03-8.89,20.02-22.03,30.34-33.95h-5.83Z"/>
            <path class="cls-8" d="M-42.94,769.21c22.05-21.76,42.28-40.08,60.79-53.13,17.21-12.13,33.14-19.77,47.82-21.3,29.15-2.99,55.44,11.08,76.87,13.55,10.24,1.16,19.61-.55,27.05-5.98,7.87-5.76,14.03-15.65,19.29-27.39,11.75-26.31,21.46-57.9,44.03-78.59,20.86-19.07,49.02-26.6,67.24-20.35,20.18,6.99,34.72,25.38,54.6,41.47,18.8,15.21,38.99,25.7,51.48,21.13,11.11-4.11,16.43-18.83,21.45-30.28-4.96-9.72-8.18-20.53-5.71-31.57-8.86,11.95-15.39,28-25.42,35.99-9.58,7.59-26.41,2.55-41.92-8.81-17.42-12.78-30.26-29.42-49.4-36.88-17.25-6.67-44.32-1.46-68.11,13.41-25.4,15.91-43.57,39.49-63.49,57.12-17.82,15.72-41.77,20.61-66.37,14.3-26.77-6.9-53.17-20.47-84.14-18.48-16.27,1.07-34.82,7.7-55.02,18.17-21.62,11.22-44.74,26.6-67.77,44.97,2.29,28.61,28.35,52.18,56.74,72.65Z"/>
          </g>
          <g class="cls-5">
            <path class="cls-6" d="M432.56,553.34c-10.98,12.53-21.32,27.15-31.97,36.58-10.71,9.46-26.43,8.43-40.42-.16-16.23-9.99-28.41-24.74-47.21-31.74-17.31-6.4-43.52-1.94-66.65,9.55-25.07,12.47-45.08,30.77-66.5,41.22-19.09,9.28-42.41,6.61-62.96-4.3-22.06-11.75-41.52-29.91-69.28-33.79-14.34-1.97-31.67,1.78-51.02,10.38-20.74,9.23-43.48,23.68-66.77,41.78-14.66,21.39-27.28,42.86-29.33,63.15,23.01-18.11,46.24-33.23,67.97-44.16,20.31-10.21,38.92-16.5,55.12-17.26,30.8-1.39,56.54,12.52,83.05,20.08,24.44,6.94,48.69,3.21,66.96-11.53,20.44-16.54,39.12-39.26,64.63-54.64,23.84-14.33,50.8-19.44,68.04-12.81,19.07,7.38,31.74,23.72,48.87,36.07,15.19,10.92,31.73,15.34,41.31,7.49,10.15-8.38,17.27-24.53,26.69-36.62,2.14-6.47,5.88-12.93,10.26-19.3h-.81Z"/>
            <path class="cls-11" d="M429.38,553.34c-6.83,7.34-13.68,14.38-20.26,20.31-12.89,11.58-29.2,14.45-43.4,7.96-16.48-7.58-28.49-21.74-46.7-29.29-16.76-6.91-41.53-3.87-62.7,5.05-23.66,9.99-42.76,24.05-62.18,28.6-18.35,4.25-37.68-4.29-53.64-19.23-17.96-16.83-35.39-40.39-62.78-49.47-13.91-4.57-30.23-2.81-47.92,4.62-18.89,7.94-39.4,22.21-60.87,40.67-10.79,21.52-27.11,42.42-41.8,64.22,23.32-18.07,46.15-32.55,67.02-41.9,19.47-8.7,36.92-12.63,51.39-10.84,27.96,3.51,47.81,21.34,70.2,32.81,20.87,10.66,44.34,12.95,63.44,3.36,21.44-10.81,41.42-29.34,66.55-41.97,23.22-11.66,49.5-16.15,66.8-9.73,18.81,7.03,31,21.88,47.25,32,14.04,8.71,29.76,9.92,40.36.56,10.91-9.68,21.37-24.98,32.65-37.71h-3.41Z"/>
            <path class="cls-17" d="M-77.87,739.98c22.94-20.19,45.07-37.16,65.48-49.46,18.99-11.44,36.47-18.78,52.21-20.18,30.69-2.66,58.21,11.78,82.75,15.98,22.98,3.89,42.89-6.89,56.71-27.16,15.7-23.09,30.02-51.25,54.43-69.83,22.56-17.13,50.56-23.89,68.53-17.54,19.86,7.07,33.54,24.59,51.82,39.15,17.04,13.56,35.3,21.87,46.05,16.15,10.27-5.52,15.56-20.65,22.18-32.3-1.79-7.03-1.64-14.96.97-22.62-9.48,12.11-16.67,28.26-26.84,36.69-9.58,7.89-26.09,3.54-41.24-7.33-17.11-12.3-29.75-28.6-48.82-35.98-17.24-6.63-44.19-1.53-68.03,12.74-25.52,15.31-44.25,37.93-64.74,54.35-18.31,14.63-42.58,18.23-66.99,11.22-26.47-7.63-52.12-21.59-82.89-20.28-16.18.71-34.8,6.97-55.12,17.14-21.75,10.9-44.99,25.99-68,44.09-2.36,19.91,6.54,39.22,21.55,55.16Z"/>
          </g>
        </g>
      </g>
      <g class="cls-19">
        <g>
          <g>
            <path class="cls-6" d="M328,540.92c9.15,10.44,18.26,20.99,27.12,28.79,11.87,10.41,27.89,10.79,41.91,3.03,16.48-9.16,28.91-23.56,48.03-30.53,17.77-6.44,44.08-2.22,66.94,8.29,24.89,11.46,45.3,28.36,66.73,36.5,19.29,7.29,41.63,1.99,60.13-10.95,20.21-14.17,37.67-35.45,64.88-42.39,13.87-3.5,30.72-1.02,49.55,6.91,20.15,8.5,42.43,23,65.82,41.77,28.04,41.19,59.23,83.79,47.9,118.37-23.56-19.21-46.92-35.36-68.67-47.21-20.32-11.07-38.98-18.21-55.51-19.65-31.55-2.69-59.02,10.88-86.33,17.12-25.04,5.68-48.86-.78-66.29-18.09-19.49-19.42-37.21-44.67-62.9-61.63-24.12-15.88-51.87-21.35-69.5-14.48-19.64,7.71-33.01,25.1-51.24,38.72-16.33,12.17-33.95,18.15-43.86,10.76-10.16-7.64-16.19-23.92-24.51-35.95-.77-9.48-5.92-19.45-12.62-29.36h2.44Z"/>
            <path class="cls-14" d="M337.1,540.92c15.54,13.95,33.16,20.54,47.63,16.59,17.72-4.9,30.07-18.22,47.97-26.19,16.64-7.38,39.56-6.11,58.36-.15,21.45,6.81,40.87,16.28,59.1,15.32,10.13-.55,20.11-4.05,29.38-9.9,10.6-6.71,20.57-16.54,31.1-27.97,12.09-13.12,24.72-27.71,38.83-41.07,15.32-14.5,31.82-27.33,48.91-35.6,16.99-8.19,34.27-10.33,49.07-4.75,17.07,6.48,32.38,22.52,48.68,43.43-16.86,37.01.81,79.98,28.02,119.06-23.57-18.71-46.12-33.29-66.55-42.02-19.07-8.14-36.11-10.95-50.12-7.81-27.41,6.21-45.33,26.79-66.07,40.39-19.1,12.49-41.82,17.15-61.16,9.33-21.57-8.76-41.99-26.07-67.06-37.84-23.07-10.81-49.52-15.11-67.25-8.64-19.13,7.02-31.55,21.59-48.04,30.99-14.07,8-30.08,7.95-41.7-2.28-9.36-8.27-18.91-19.79-28.55-30.89h9.45Z"/>
            <path class="cls-13" d="M774.97,787.94c-20.23-22.26-38.35-41.19-55.16-54.65-15.67-12.55-30.5-20.45-44.52-22.36-28.14-3.77-53.35,8.16-73.1,8.19-9.31,0-17.82-2.77-24.21-8.88-6.95-6.66-11.91-17.37-15.58-30.14-8.42-29.39-12.46-64.74-32.94-88.16-18.78-21.38-47.47-29.94-66.3-23.63-20.9,7.06-36.81,26.74-59.13,44.7-21.3,17.14-44.06,29.73-58.69,26.16-12.08-3-17.67-17.35-21.39-28.63,7.85-13.5,15.69-26.22,14.16-41.13,8.43,12.06,14.55,28.35,24.71,36.07,9.87,7.45,27.42,1.61,43.66-10.47,18.16-13.52,31.48-30.85,51.1-38.55,17.62-6.86,45.36-1.42,69.52,14.35,25.74,16.85,43.59,41.9,63.23,61.1,17.56,17.11,41.49,23.35,66.56,17.56,27.34-6.36,54.75-19.96,86.34-17.37,16.55,1.39,35.27,8.47,55.65,19.48,21.82,11.79,45.22,27.85,68.78,46.99-11.19,38.45-57.06,61.24-92.68,89.37Z"/>
          </g>
          <g class="cls-5">
            <path class="cls-6" d="M327.3,540.92c10.15,11.73,20.08,24.29,29.94,33.01,11.39,10.03,27.4,9.72,41.53,1.46,16.5-9.67,28.92-24.39,48.06-31.44,17.71-6.48,44.25-2.1,67.51,9.01,25.27,12.09,45.71,29.85,67.4,39.22,19.4,8.34,42.51,4.29,62.22-7.76,21.29-13.06,39.78-32.95,67.45-38.4,14.2-2.76,31.43.39,50.73,8.74,20.67,8.96,43.46,23.6,67.13,42.22,22.11,31.47,43.34,63.5,40.31,91.81-23.5-18.79-47.07-34.53-69.11-46.04-20.59-10.74-39.49-17.55-56.1-18.7-31.62-2.13-58.65,11.67-85.99,18.62-25.12,6.35-49.5,1.18-67.61-15.02-20.24-18.17-38.69-42.39-64.6-58.71-24.26-15.25-51.9-20.6-69.51-13.78-19.55,7.62-32.68,24.65-50.51,37.77-15.89,11.66-33.12,16.91-42.91,9.21-10.22-8.09-16.8-24.46-25.76-36.63-1.69-8.12-6.22-16.41-11.82-24.58h1.63Z"/>
            <path class="cls-15" d="M332.98,540.92c3.51,3.45,7,6.75,10.43,9.83,14.62,13.11,31.9,18.08,46.47,12.81,17.25-6.28,29.51-20.15,47.74-27.98,16.86-7.21,40.99-5.02,61.16,2.48,22.73,8.47,41.93,20.41,60.44,21.98,19.35,1.6,37.6-10.51,53.84-28.44,19.72-21.77,41.34-50.04,71.23-62.79,31.06-13.15,66.67,4.61,103.68,41.8,1.82,30.36,23.41,60.83,45.32,92.07-23.74-18.58-46.71-33.27-67.59-42.4-19.48-8.52-36.89-11.92-51.24-9.44-27.9,4.89-46.88,24.26-68.63,36.9-20.19,11.7-43.57,15.23-63,6.46-21.76-9.87-42.2-27.96-67.58-40.29-23.41-11.35-50.04-15.79-67.74-9.28-19.16,7.1-31.58,21.95-48.1,31.81-14.19,8.44-30.2,9.01-41.4-.88-10.24-9.07-20.43-22.48-30.97-34.65h5.95Z"/>
            <path class="cls-2" d="M811.83,761.24c-22.5-22.21-43.15-40.9-62.04-54.23-17.56-12.38-33.82-20.18-48.8-21.74-29.75-3.05-56.58,11.31-78.45,13.83-10.45,1.18-20.01-.56-27.61-6.11-8.04-5.88-14.32-15.97-19.68-27.96-11.99-26.86-21.9-59.09-44.93-80.21-21.29-19.46-50.04-27.15-68.62-20.77-20.6,7.14-35.44,25.9-55.73,42.33-19.19,15.53-39.79,26.23-52.54,21.57-11.34-4.2-16.77-19.22-21.89-30.9,5.07-9.92,8.35-20.95,5.82-32.22,9.04,12.19,15.71,28.57,25.94,36.73,9.78,7.74,26.95,2.6,42.79-8.99,17.78-13.04,30.88-30.02,50.42-37.64,17.6-6.81,45.23-1.49,69.52,13.68,25.93,16.24,44.47,40.3,64.8,58.3,18.19,16.05,42.63,21.03,67.74,14.59,27.32-7.05,54.26-20.89,85.87-18.86,16.61,1.1,35.54,7.85,56.15,18.55,22.07,11.45,45.66,27.15,69.16,45.9-2.34,29.2-28.93,53.26-57.91,74.15Z"/>
          </g>
          <g class="cls-5">
            <path class="cls-6" d="M326.52,540.92c11.21,12.79,21.76,27.71,32.63,37.34,10.93,9.65,26.97,8.6,41.26-.16,16.57-10.19,29-25.25,48.18-32.39,17.67-6.53,44.42-1.98,68.02,9.74,25.58,12.73,46.01,31.4,67.87,42.07,19.49,9.47,43.28,6.75,64.25-4.39,22.51-11.99,42.38-30.53,70.71-34.49,14.64-2.01,32.33,1.82,52.07,10.6,21.17,9.42,44.37,24.17,68.15,42.64,14.96,21.83,27.84,43.75,29.94,64.45-23.48-18.49-47.19-33.91-69.38-45.07-20.72-10.42-39.73-16.84-56.26-17.61-31.44-1.41-57.71,12.78-84.77,20.5-24.95,7.08-49.69,3.28-68.34-11.77-20.86-16.88-39.93-40.07-65.97-55.76-24.33-14.63-51.85-19.84-69.44-13.08-19.46,7.54-32.39,24.21-49.88,36.81-15.5,11.15-32.39,15.66-42.16,7.64-10.36-8.55-17.63-25.03-27.24-37.38-2.18-6.6-6-13.2-10.48-19.7h.82Z"/>
            <path class="cls-16" d="M329.77,540.92c6.97,7.49,13.96,14.68,20.68,20.73,13.16,11.82,29.8,14.75,44.29,8.13,16.82-7.73,29.08-22.19,47.67-29.89,17.11-7.05,42.38-3.95,63.99,5.15,24.14,10.19,43.65,24.55,63.46,29.19,18.72,4.34,38.46-4.38,54.75-19.62,18.34-17.17,36.12-41.22,64.08-50.49,14.19-4.67,30.85-2.87,48.91,4.71,19.28,8.1,40.22,22.67,62.12,41.51,11.01,21.96,27.67,43.29,42.66,65.54-23.8-18.45-47.1-33.23-68.4-42.76-19.87-8.88-37.68-12.89-52.45-11.07-28.54,3.59-48.8,21.78-71.65,33.48-21.3,10.88-45.25,13.22-64.75,3.43-21.88-11.04-42.28-29.94-67.92-42.84-23.7-11.9-50.52-16.48-68.18-9.93-19.2,7.17-31.63,22.33-48.23,32.65-14.33,8.89-30.38,10.12-41.19.57-11.14-9.88-21.81-25.49-33.32-38.49h3.49Z"/>
            <path class="cls-3" d="M847.48,731.41c-23.42-20.61-46-37.92-66.83-50.48-19.39-11.68-37.22-19.17-53.28-20.59-31.32-2.72-59.41,12.02-84.45,16.31-23.45,3.97-43.77-7.03-57.88-27.72-16.03-23.57-30.64-52.3-55.56-71.27-23.02-17.48-51.61-24.38-69.94-17.9-20.27,7.22-34.24,25.09-52.89,39.96-17.39,13.84-36.03,22.32-46.99,16.48-10.48-5.64-15.88-21.07-22.64-32.97,1.83-7.18,1.67-15.27-.99-23.08,9.68,12.36,17.01,28.85,27.39,37.45,9.77,8.05,26.63,3.61,42.09-7.48,17.46-12.55,30.37-29.19,49.82-36.73,17.59-6.76,45.1-1.56,69.44,13.01,26.04,15.63,45.16,38.71,66.07,55.47,18.69,14.93,43.46,18.61,68.37,11.46,27.01-7.79,53.19-22.04,84.6-20.7,16.52.73,35.52,7.11,56.25,17.5,22.19,11.13,45.92,26.53,69.41,45,2.41,20.32-6.67,40.02-21.99,56.3Z"/>
          </g>
        </g>
      </g>
      <g>
        <circle class="cls-4" cx="373.66" cy="587.32" r="148.5"/>
        <circle class="cls-6" cx="388.78" cy="569.08" r="110.53"/>
        <path class="cls-18" d="M388.78,453.51c-63.83,0-115.57,51.74-115.57,115.57s51.75,115.57,115.57,115.57,115.57-51.75,115.57-115.57-51.75-115.57-115.57-115.57ZM496.11,576.24c-2.95.06-5.3,2.51-5.23,5.47.05,2.45,1.76,4.46,4.03,5.05-.43,2.63-.97,5.23-1.59,7.79l-53.98-17.22-36.51-6.16c.1-.63.18-1.26.19-1.91l36.86,3.87,56.5-3.96c0,2.38-.1,4.73-.26,7.07ZM490.91,602.93c-.1-.03-.2-.08-.31-.1-2.87-.7-5.77,1.07-6.45,3.95-.61,2.51.66,5.03,2.91,6.09-1.13,2.52-2.31,4.99-3.62,7.4l-47.92-30.4-33.7-15.19c.28-.63.48-1.3.67-1.98l34.81,12.7,55.86,9.89c-.65,2.6-1.41,5.14-2.24,7.65ZM436.37,665c-1.56-2.51-4.87-3.27-7.37-1.7-2.2,1.37-3.05,4.09-2.17,6.42-2.28.86-4.61,1.66-6.98,2.37l-12.71-55.45-13.25-34.46c.61-.23,1.17-.53,1.74-.84l15.37,33.63,32.28,46.86c-2.18,1.28-4.41,2.5-6.68,3.63-.08-.16-.14-.32-.23-.46ZM408.26,674.36c-.87-2.82-3.88-4.4-6.7-3.52-2.4.74-3.89,3.03-3.74,5.43-2.73.23-5.5.37-8.29.39l3.4-56.78-3.02-36.82c.85-.07,1.67-.19,2.47-.4l6.77,36.32,20,53.32c-3.52,1.04-7.12,1.89-10.79,2.57-.04-.17-.05-.34-.1-.51ZM348.42,663.17c-2.52-.55-5,.76-6.02,3.02-1.95-.93-3.85-1.93-5.74-2.98l30.74-47.83,15.37-33.57c.63.29,1.28.52,1.96.72l-12.91,34.64-10.31,56.02c-3.15-.82-6.24-1.79-9.27-2.88.1-.25.19-.5.25-.77.64-2.88-1.2-5.74-4.08-6.37ZM294.33,608.81c-1.4-2.13-4.06-2.93-6.36-2.06-.84-2.25-1.6-4.53-2.29-6.84l55.24-12.72,34.52-13.32c.23.63.52,1.22.84,1.81l-33.58,15.6-46.57,32.51c-1.4-2.36-2.72-4.78-3.94-7.26.21-.1.41-.18.59-.31,2.48-1.61,3.16-4.94,1.54-7.41ZM281.56,560.28c.26.02.52.04.8.03,2.95-.18,5.19-2.73,5-5.69-.16-2.51-2.04-4.49-4.41-4.91.41-2.25.87-4.48,1.42-6.68l53.84,17.17,36.54,6.16c-.1.62-.16,1.26-.19,1.91l-36.88-3.88-56.49,3.96c.02-2.72.16-5.41.37-8.08ZM287.09,533.89c.25.09.49.18.77.23,2.9.58,5.72-1.32,6.28-4.22.49-2.49-.84-4.91-3.06-5.91,1.03-2.23,2.12-4.43,3.29-6.57l47.66,30.24,33.82,15.24c-.3.63-.51,1.29-.72,1.96l-34.88-12.73-55.72-9.86c.73-2.85,1.6-5.64,2.55-8.38ZM341.82,473.33c1.66,2.44,5.01,3.05,7.44,1.38,2.12-1.46,2.87-4.18,1.91-6.47,2.19-.81,4.4-1.56,6.66-2.23l12.57,54.87,13.34,34.69c-.6.23-1.16.52-1.72.82l-15.47-33.85-31.98-46.41c2.22-1.29,4.47-2.52,6.79-3.66.13.29.28.58.47.85ZM283,588.74c.24-.05.48-.08.71-.16,2.8-.93,4.32-3.97,3.38-6.77-.79-2.38-3.11-3.82-5.5-3.62-.25-2.98-.41-6-.41-9.05l56.47,3.6,36.94-2.89c.06.87.18,1.71.38,2.53l-36.42,6.82-53.09,19.98c-.99-3.42-1.82-6.89-2.47-10.43ZM385.21,555.13l-6.82-36.58-19.79-52.75c3.01-.88,6.07-1.64,9.19-2.25.05.32.13.65.24.98.99,2.78,4.06,4.23,6.84,3.23,2.42-.87,3.84-3.3,3.5-5.76,3.17-.3,6.37-.47,9.6-.49l-3.36,56.15,3.04,37.08c-.84.07-1.66.18-2.45.39ZM402.34,467.07c2.46,0,4.51-1.67,5.14-3.94,2.59.45,5.14.97,7.66,1.61l-17.47,53.52-6.43,36.62c-.67-.12-1.35-.19-2.05-.21l3.74-37.01-4.15-56.17c2.76,0,5.49.14,8.2.34.06,2.91,2.42,5.25,5.34,5.25ZM427.89,473.91c2.39.63,4.82-.47,5.99-2.51,2.28,1.06,4.53,2.17,6.72,3.38l-30.45,47.38-15.46,33.79c-.62-.29-1.28-.49-1.95-.69l12.99-34.88,10.2-55.43c2.76.72,5.47,1.56,8.15,2.49-.71,2.83.98,5.73,3.82,6.47ZM450.85,487.05c2.16,1.22,4.8.77,6.45-.92,2.51,2.07,4.91,4.26,7.22,6.55l-42.35,37.17-24.19,28.22c-.61-.52-1.25-.99-1.95-1.4l21.38-30.44,23.88-51.05c2.57,1.44,5.09,2.97,7.53,4.61-1.43,2.57-.54,5.81,2.03,7.26ZM469.7,505.61c1.78,1.74,4.45,1.97,6.48.75,1.61,2.23,3.15,4.52,4.58,6.87l-50.16,25.86-30.26,21.5c-.37-.52-.78-1.01-1.22-1.48l28.91-23.34,37.07-42.53c1.55,1.56,3.03,3.18,4.49,4.83-2.04,2.11-2,5.48.1,7.53ZM483.18,528.37c1.28,2.16,3.84,3.07,6.13,2.37.87,2.28,1.67,4.58,2.39,6.93l-55.07,12.68-34.6,13.35c-.25-.62-.56-1.21-.89-1.78l33.7-15.65,46.31-32.33c1.38,2.31,2.67,4.69,3.88,7.11,0,0,0,0-.02,0-2.54,1.51-3.37,4.8-1.85,7.34ZM494.3,547.97c-.08.02-.16.02-.23.04-2.84.81-4.49,3.78-3.66,6.62.71,2.45,3.01,4,5.45,3.86.32,3.26.49,6.57.51,9.91l-56.46-3.6-36.97,2.89c-.08-.87-.21-1.7-.43-2.52l36.49-6.84,52.93-19.92c.93,3.13,1.73,6.31,2.38,9.55ZM318.92,487.27c.19.22.39.44.61.64,2.23,1.93,5.62,1.67,7.55-.56,1.64-1.91,1.68-4.64.28-6.61,2.11-1.47,4.28-2.88,6.51-4.2l25.49,50.21,21.32,30.4c-.58.4-1.12.86-1.63,1.34l-23.61-28.7-42.86-36.69c2.03-2.03,4.16-3.97,6.34-5.84ZM312.03,493.69l37.54,42.02,28.42,23.93c-.52.6-.98,1.23-1.39,1.9l-30.53-21.17-51.31-23.63c1.5-2.7,3.1-5.33,4.82-7.87.24.17.49.33.76.46,2.65,1.3,5.86.18,7.15-2.47,1.11-2.3.44-5-1.49-6.52,1.92-2.3,3.93-4.52,6.02-6.65ZM306.46,638.34c.24-.19.47-.39.68-.62,1.98-2.19,1.8-5.58-.41-7.56-1.92-1.73-4.75-1.81-6.76-.33-1.21-1.76-2.36-3.56-3.47-5.39l50.45-26,30.12-21.4c.37.53.79,1.01,1.22,1.48l-28.78,23.24-37.35,42.85c-1.99-2.02-3.89-4.11-5.71-6.28ZM312.68,645.15l42.69-37.47,24.06-28.07c.61.53,1.25,1.02,1.94,1.44l-21.24,30.25-24.11,51.55c-3.03-1.71-5.96-3.56-8.8-5.54.16-.22.32-.45.46-.71,1.36-2.63.31-5.86-2.32-7.2-2.28-1.17-5.01-.54-6.57,1.36-2.1-1.8-4.15-3.66-6.11-5.61ZM379.79,676.28c.01-.19.04-.37.03-.56-.12-2.95-2.62-5.24-5.57-5.11-2.5.1-4.52,1.92-4.99,4.28-2.37-.44-4.72-.93-7.03-1.51l17.66-54.09,6.37-36.35c.68.12,1.38.19,2.08.21l-3.72,36.75,4.19,56.8h-.03c-3.03,0-6.02-.16-8.99-.4ZM459.26,650.34c-.16-.19-.31-.39-.49-.57-2.15-2.03-5.55-1.91-7.57.25-1.82,1.94-1.9,4.86-.33,6.9-2.26,1.6-4.57,3.12-6.94,4.55l-25.74-50.7-21.2-30.23c.58-.41,1.14-.87,1.65-1.36l23.47,28.55,43.18,36.97c-1.94,1.96-3.96,3.83-6.04,5.63ZM465.81,644.17l-37.83-42.35-28.29-23.82c.5-.61.97-1.25,1.37-1.94l30.42,21.09,51.59,23.77c-1.58,2.87-3.29,5.68-5.12,8.38-.17-.13-.34-.26-.54-.37-2.59-1.41-5.85-.44-7.25,2.17-1.25,2.31-.62,5.13,1.38,6.72-1.82,2.19-3.74,4.3-5.73,6.34Z"/>
      </g>
      <g>
        <g>
          <path d="M189.05,286.18c-.27.87-3.31,1.94-4.2,2.14-1.75.41-3.83.56-5.56.37-3.22-.35-6.03-1.45-9.29-1.11-2.05.23-3.76.54-5.6,1.61-.81.48-1.77.46-2.65.75-.56.17-1.15.29-1.68.48-.49.15-1,.55-1.47.42.55-1.46,1.36-2.93,2.01-4.43.66-1.54,1.4-3.17,2-4.71,1.39-3.59,2.36-7.09,2.88-10.79-.59,1-1.6,3.18-2.67,3.59.4-2.61,2.62-5.88,1.79-8.44-.44,1.18-1.57,2.58-2.46,3.34.54-1.22,1.36-2.83,1.64-4.1.32-1.4.2-2.55.3-3.92-.47,1.11-1.03,2.87-2.18,3.24,1.08-2.87,1.71-7.16.58-10-.47.71-.86,1.67-1.12,2.45-.31.88-.66,1.59-1.03,2.47-.54,1.23-1.67,3.05-3.14,5.42-1.93,3.1-5.29,5.63-7.04,8.91-1.33,2.49-1.74,5.42-2.33,8.1-.27,1.22-.4,1.83-.83,3.21-.43,1.37-.82,2.18-1.47,3.3.65-1.12-.02-1.51.09-3.79.09-2.23-1.78-3.55-3.25-3.96-1.25-.34-2.8.83-3.6,1.92-.44.58-.69,1.33-.98,2.01-.43.99-.93,1.16-1.69,1.82,1.55.23,3.14-.03,3.71,2,.44,1.58.13,3.51-.07,5.02-.2,1.56-.74,3.11-.88,4.65-.16,1.7.13,3.31,1.17,5.19.93,1.65,1.84,2.74,3.11,4.19,1.08,1.24,2.18,2.22,3.71,2.96,1.43.7,3.15,1.14,4.64,1.75.64.26,1.5.47,1.99.91.53.5.9,1.14,1.45,1.65,1.39,1.29,2.55,3.27,4.54,3.67.49-.98.41-.76,1.31-.96,1.06-.21.55-.66.82-1.52.24-.72.97-1.08,1.3-1.78.64-1.29-.22-1.42-1.14-1.63-1.46-.32-2.93-.31-4.34-.84-.72-.24-1.59-.51-2.16-1.04-.61-.56-.65-1.33-.87-2.12.93-.13,2.21.16,3.15.19,1.26.03,2.44.43,3.72.32,2.2-.21,4.69-.37,6.73-1.76-1.29-.64-2.29-1-3.03-2.24.74-.17,1.58.55,2.29.75.7.2,1.82.18,2.6.24,1.63.13,2.87-.74,4.26-1.56-1.06,0-2.81.6-3.68-.37-.61-.66.28-.51.84-.61.54-.1,1.13-.29,1.66-.39,1.19-.23,2.5-.47,3.69-1.08,1.04-.54,2.19-1.29,2.95-2.17-1.21,0-2.34-.1-3.48-.67.55-.25,1.31-.24,1.91-.43.7-.22,1.33-.56,2.02-.84,1.29-.53,2.35-1.49,3.3-2.5-1.41.51-2.89.33-4.25-.31,1.11-.92,3.63-.73,4.97-1.02,1.34-.27,2.97-.87,3.5-2.44-1.16.03-2.42.24-3.62.1.38-.85,2.16-1.66,2.92-2.25,1.09-.84,1.7-1.97,2.29-3.3"/>
          <path class="cls-6" d="M190.05,285.87c-.26.86-3.31,1.94-4.19,2.14-1.75.41-3.84.56-5.56.37-3.22-.35-6.03-1.45-9.29-1.11-2.05.23-3.76.54-5.6,1.61-.8.48-1.77.46-2.65.75-.56.17-1.15.29-1.68.48-.49.16-1,.56-1.47.42.55-1.46,1.36-2.93,2.01-4.44.66-1.53,1.4-3.17,2-4.71,1.39-3.59,2.35-7.09,2.88-10.79-.58,1-1.59,3.18-2.67,3.58.4-2.61,2.62-5.88,1.79-8.44-.45,1.18-1.58,2.58-2.46,3.34.54-1.22,1.36-2.84,1.64-4.11.32-1.4.2-2.55.3-3.92-.46,1.1-1.03,2.87-2.18,3.24,1.08-2.88,1.71-7.17.58-10.01-.47.71-.86,1.67-1.12,2.45-.31.88-.65,1.59-1.02,2.47-.55,1.23-1.68,3.05-3.15,5.42-1.93,3.1-5.28,5.63-7.04,8.91-1.33,2.49-1.73,5.42-2.32,8.1-.28,1.21-.4,1.83-.83,3.21-.43,1.37-.82,2.18-1.47,3.3.65-1.12-.02-1.51.09-3.79.09-2.23-1.77-3.55-3.25-3.96-1.25-.34-2.79.83-3.59,1.91-.44.59-.69,1.33-.98,2.02-.43.99-.93,1.16-1.69,1.82,1.55.23,3.14-.03,3.71,2,.44,1.58.13,3.51-.07,5.02-.2,1.56-.74,3.1-.89,4.65-.16,1.7.13,3.31,1.17,5.19.93,1.64,1.84,2.74,3.11,4.19,1.08,1.24,2.18,2.21,3.72,2.95,1.43.7,3.15,1.14,4.64,1.75.64.26,1.5.47,1.99.91.53.5.89,1.14,1.45,1.65,1.39,1.29,2.55,3.26,4.54,3.67.49-.98.4-.76,1.31-.96,1.05-.21.55-.66.81-1.52.25-.73.97-1.08,1.31-1.78.64-1.29-.22-1.42-1.14-1.63-1.46-.32-2.93-.31-4.34-.83-.72-.25-1.58-.51-2.16-1.04-.61-.57-.65-1.34-.88-2.13.94-.13,2.22.16,3.16.19,1.26.03,2.44.44,3.72.32,2.2-.21,4.69-.38,6.73-1.76-1.3-.64-2.29-1-3.03-2.23.74-.17,1.58.55,2.29.75.7.2,1.82.17,2.6.24,1.64.13,2.87-.74,4.26-1.56-1.06,0-2.81.59-3.68-.37-.61-.66.28-.5.85-.61.54-.09,1.13-.29,1.66-.39,1.19-.22,2.5-.47,3.69-1.08,1.05-.54,2.19-1.29,2.95-2.17-1.21,0-2.34-.1-3.48-.67.55-.25,1.32-.24,1.91-.43.7-.22,1.33-.57,2.02-.84,1.29-.53,2.34-1.48,3.3-2.5-1.41.51-2.89.33-4.25-.32,1.11-.91,3.63-.73,4.97-1.02,1.34-.27,2.96-.88,3.5-2.43-1.16.03-2.42.23-3.62.1.38-.85,2.16-1.66,2.92-2.26,1.09-.84,1.7-1.96,2.29-3.3"/>
        </g>
        <g>
          <path d="M145.78,241.07c-.15.5-1.9,1.12-2.41,1.23-1.01.24-2.2.32-3.19.21-1.85-.2-3.47-.83-5.34-.64-1.18.13-2.16.31-3.22.92-.46.28-1.02.27-1.52.43-.32.1-.66.17-.97.27-.28.09-.57.32-.85.24.32-.84.79-1.68,1.16-2.55.38-.88.8-1.83,1.15-2.71.8-2.07,1.35-4.07,1.65-6.2-.33.57-.92,1.83-1.53,2.06.23-1.5,1.5-3.38,1.02-4.85-.25.68-.9,1.48-1.42,1.92.31-.7.78-1.63.94-2.36.19-.8.11-1.46.18-2.25-.27.63-.59,1.65-1.26,1.86.63-1.65.99-4.12.34-5.75-.27.41-.5.96-.64,1.41-.18.51-.38.91-.59,1.42-.32.71-.96,1.75-1.81,3.12-1.11,1.78-3.04,3.24-4.05,5.12-.76,1.43-.99,3.12-1.33,4.66-.16.7-.23,1.05-.48,1.84-.25.79-.47,1.25-.84,1.9.37-.64-.01-.87.05-2.18.05-1.28-1.02-2.04-1.87-2.28-.73-.2-1.6.48-2.07,1.1-.25.34-.39.77-.56,1.16-.25.57-.53.67-.97,1.04.89.13,1.81-.02,2.13,1.15.25.91.08,2.02-.04,2.89-.11.89-.42,1.78-.51,2.67-.09.98.08,1.9.68,2.98.53.95,1.06,1.58,1.79,2.41.62.72,1.25,1.27,2.13,1.7.82.4,1.81.66,2.67,1.01.36.15.86.27,1.15.52.3.28.52.65.83.95.8.74,1.47,1.87,2.61,2.11.28-.57.23-.44.75-.55.61-.12.32-.38.47-.87.13-.42.56-.62.75-1.02.37-.74-.13-.82-.66-.94-.84-.18-1.68-.18-2.49-.48-.41-.14-.91-.3-1.24-.6-.35-.32-.37-.77-.5-1.22.54-.08,1.27.09,1.81.11.72.02,1.4.25,2.13.19,1.26-.12,2.7-.21,3.87-1.01-.74-.37-1.31-.57-1.74-1.29.42-.09.9.32,1.32.43.41.12,1.04.1,1.49.14.94.07,1.65-.43,2.45-.9-.61,0-1.62.34-2.12-.21-.35-.38.16-.29.48-.35.31-.05.65-.16.96-.22.68-.13,1.44-.27,2.12-.62.6-.31,1.26-.74,1.69-1.25-.69,0-1.34-.06-2-.39.32-.15.76-.14,1.1-.25.4-.13.76-.33,1.16-.48.74-.31,1.35-.86,1.9-1.44-.81.3-1.66.19-2.44-.18.64-.52,2.09-.42,2.85-.58.77-.16,1.71-.5,2.01-1.4-.67.02-1.4.14-2.08.06.22-.49,1.24-.96,1.68-1.3.62-.48.98-1.13,1.31-1.9"/>
          <path class="cls-6" d="M146.36,240.9c-.15.5-1.9,1.12-2.41,1.23-1.01.24-2.2.32-3.19.21-1.85-.2-3.47-.83-5.35-.64-1.18.13-2.16.31-3.22.93-.46.28-1.02.27-1.53.43-.32.1-.66.17-.96.27-.28.09-.58.32-.85.24.32-.84.78-1.68,1.15-2.55.38-.88.8-1.82,1.15-2.71.8-2.06,1.36-4.07,1.66-6.2-.34.57-.92,1.83-1.53,2.06.23-1.5,1.5-3.38,1.03-4.85-.26.68-.9,1.48-1.41,1.92.31-.7.78-1.63.94-2.36.18-.81.12-1.47.17-2.25-.27.63-.59,1.64-1.25,1.86.63-1.65.98-4.12.33-5.75-.26.41-.49.96-.64,1.41-.18.51-.37.91-.58,1.42-.32.71-.96,1.75-1.81,3.12-1.11,1.78-3.04,3.23-4.05,5.12-.76,1.43-.99,3.12-1.34,4.66-.16.7-.23,1.05-.48,1.84-.25.79-.47,1.25-.84,1.9.37-.64-.01-.87.05-2.18.05-1.28-1.02-2.04-1.87-2.27-.73-.2-1.6.48-2.07,1.1-.25.34-.39.77-.56,1.16-.25.57-.54.67-.97,1.04.89.13,1.81-.02,2.13,1.15.25.91.08,2.02-.04,2.89-.12.9-.42,1.78-.51,2.67-.09.98.07,1.9.67,2.98.53.94,1.06,1.58,1.79,2.41.62.71,1.25,1.27,2.13,1.7.82.4,1.81.66,2.67,1.01.37.15.86.27,1.14.52.3.29.51.66.83.95.8.74,1.47,1.87,2.61,2.11.28-.57.23-.44.76-.55.61-.12.31-.38.47-.87.14-.42.56-.62.75-1.02.37-.74-.13-.81-.66-.94-.84-.19-1.68-.18-2.49-.48-.41-.14-.91-.3-1.24-.6-.35-.32-.37-.76-.51-1.22.54-.08,1.27.09,1.82.11.72.02,1.4.25,2.13.19,1.26-.12,2.7-.21,3.87-1.01-.74-.37-1.32-.57-1.74-1.28.42-.1.9.31,1.31.43.4.12,1.04.1,1.5.14.94.07,1.65-.43,2.45-.9-.61,0-1.61.34-2.11-.21-.35-.38.16-.29.48-.35.31-.05.65-.16.96-.23.69-.13,1.43-.27,2.12-.62.6-.31,1.25-.74,1.7-1.25-.7,0-1.34-.06-2-.39.32-.15.76-.14,1.1-.25.4-.13.77-.33,1.16-.48.74-.31,1.35-.86,1.9-1.44-.81.29-1.67.19-2.44-.18.64-.52,2.09-.42,2.86-.58.77-.16,1.71-.51,2.01-1.4-.67.02-1.4.13-2.08.06.22-.49,1.24-.96,1.68-1.3.63-.48.98-1.13,1.32-1.9"/>
        </g>
      </g>
      <g>
        <g>
          <path d="M644.76,301.2c.26.84,3.18,1.87,4.04,2.06,1.68.4,3.69.54,5.35.36,3.09-.34,5.8-1.39,8.93-1.07,1.97.22,3.62.52,5.39,1.55.78.47,1.71.45,2.55.72.54.16,1.1.28,1.62.46.47.15.96.53,1.41.4-.53-1.4-1.31-2.82-1.93-4.26-.64-1.48-1.34-3.05-1.92-4.53-1.34-3.45-2.27-6.82-2.77-10.38.56.96,1.54,3.06,2.57,3.45-.39-2.51-2.52-5.66-1.72-8.12.43,1.14,1.51,2.48,2.37,3.21-.52-1.17-1.31-2.73-1.57-3.95-.31-1.35-.2-2.45-.29-3.77.45,1.06.99,2.76,2.1,3.11-1.04-2.76-1.65-6.89-.56-9.62.45.68.83,1.6,1.07,2.36.3.85.63,1.53.99,2.38.52,1.18,1.6,2.93,3.02,5.21,1.86,2.98,5.08,5.41,6.77,8.57,1.27,2.39,1.67,5.22,2.24,7.79.26,1.17.38,1.76.79,3.09.41,1.32.78,2.1,1.41,3.17-.63-1.08.02-1.45-.09-3.64-.08-2.15,1.71-3.41,3.13-3.81,1.21-.33,2.69.8,3.46,1.84.42.56.66,1.28.94,1.94.41.96.89,1.11,1.62,1.75-1.49.22-3.02-.03-3.56,1.92-.42,1.52-.13,3.38.07,4.82.19,1.5.71,2.99.85,4.47.15,1.63-.12,3.18-1.13,4.99-.89,1.58-1.77,2.64-2.99,4.03-1.04,1.2-2.09,2.13-3.57,2.84-1.37.67-3.03,1.1-4.47,1.68-.61.25-1.44.45-1.91.88-.51.48-.87,1.09-1.39,1.59-1.34,1.24-2.45,3.14-4.36,3.53-.47-.95-.39-.73-1.26-.92-1.02-.2-.53-.63-.78-1.46-.23-.7-.93-1.04-1.25-1.71-.62-1.24.21-1.36,1.1-1.57,1.41-.31,2.81-.3,4.17-.8.7-.23,1.53-.49,2.08-1,.58-.54.62-1.28.84-2.04-.9-.13-2.12.15-3.03.18-1.21.02-2.35.42-3.58.31-2.11-.2-4.51-.36-6.47-1.69,1.24-.62,2.2-.96,2.92-2.15-.71-.16-1.51.53-2.2.72-.68.19-1.75.17-2.5.23-1.57.12-2.76-.72-4.1-1.5,1.02,0,2.7.57,3.54-.36.59-.63-.27-.49-.81-.58-.52-.09-1.09-.27-1.6-.38-1.15-.22-2.4-.45-3.55-1.04-1-.52-2.1-1.24-2.84-2.09,1.16,0,2.25-.1,3.35-.65-.53-.24-1.26-.23-1.83-.41-.68-.22-1.28-.54-1.94-.8-1.24-.51-2.26-1.43-3.17-2.4,1.35.49,2.78.32,4.09-.3-1.07-.88-3.5-.71-4.78-.98-1.29-.26-2.85-.84-3.36-2.34,1.12.03,2.33.23,3.48.1-.37-.81-2.08-1.6-2.81-2.17-1.05-.81-1.64-1.89-2.2-3.17"/>
          <path class="cls-6" d="M643.8,300.9c.25.83,3.18,1.86,4.03,2.06,1.69.4,3.69.53,5.35.36,3.09-.33,5.8-1.39,8.93-1.07,1.97.22,3.62.52,5.39,1.55.77.46,1.7.45,2.55.72.54.16,1.1.28,1.62.46.47.15.96.53,1.41.4-.53-1.4-1.31-2.81-1.94-4.27-.63-1.47-1.34-3.05-1.92-4.53-1.33-3.46-2.26-6.82-2.77-10.38.56.96,1.53,3.06,2.56,3.44-.39-2.51-2.52-5.66-1.72-8.12.43,1.14,1.51,2.48,2.37,3.21-.52-1.17-1.31-2.73-1.58-3.95-.31-1.35-.19-2.45-.29-3.77.45,1.06.99,2.76,2.09,3.11-1.04-2.77-1.65-6.89-.55-9.62.45.68.83,1.6,1.08,2.36.29.85.63,1.53.98,2.38.53,1.18,1.61,2.93,3.03,5.21,1.86,2.98,5.08,5.41,6.77,8.57,1.27,2.39,1.67,5.21,2.23,7.79.26,1.17.38,1.76.8,3.08.41,1.32.79,2.1,1.41,3.18-.62-1.08.02-1.45-.09-3.64-.09-2.15,1.7-3.41,3.13-3.8,1.2-.33,2.69.8,3.46,1.84.42.56.66,1.28.94,1.94.41.96.89,1.11,1.62,1.75-1.49.22-3.02-.03-3.56,1.92-.42,1.52-.13,3.38.06,4.83.19,1.5.72,2.98.85,4.47.16,1.64-.12,3.19-1.13,4.99-.89,1.58-1.77,2.64-2.99,4.03-1.04,1.19-2.09,2.12-3.57,2.84-1.38.68-3.03,1.1-4.46,1.68-.61.25-1.44.45-1.91.88-.5.48-.86,1.09-1.39,1.59-1.34,1.24-2.46,3.14-4.37,3.53-.47-.94-.39-.73-1.26-.92-1.01-.2-.53-.63-.78-1.46-.24-.7-.94-1.04-1.26-1.71-.62-1.24.21-1.36,1.1-1.57,1.4-.31,2.81-.3,4.17-.8.69-.24,1.52-.49,2.07-1,.58-.54.63-1.29.84-2.05-.91-.13-2.13.15-3.04.18-1.21.03-2.35.42-3.58.31-2.11-.2-4.51-.36-6.47-1.69,1.25-.61,2.2-.96,2.92-2.15-.71-.16-1.52.53-2.2.72-.68.19-1.75.17-2.5.23-1.57.13-2.76-.71-4.1-1.5,1.02,0,2.7.57,3.54-.35.59-.63-.27-.48-.81-.59-.52-.09-1.08-.28-1.6-.38-1.14-.22-2.4-.45-3.55-1.04-1.01-.52-2.1-1.24-2.84-2.09,1.17,0,2.25-.1,3.35-.65-.53-.24-1.27-.23-1.83-.41-.68-.22-1.28-.55-1.95-.81-1.24-.51-2.25-1.43-3.17-2.4,1.35.49,2.78.32,4.08-.31-1.07-.88-3.49-.71-4.78-.98-1.29-.26-2.85-.84-3.36-2.34,1.12.03,2.33.22,3.48.1-.37-.81-2.08-1.6-2.81-2.17-1.04-.81-1.64-1.89-2.2-3.17"/>
        </g>
        <g>
          <path d="M686.37,257.82c.15.48,1.83,1.08,2.32,1.18.97.23,2.12.31,3.07.21,1.78-.19,3.34-.8,5.14-.61,1.13.13,2.08.3,3.1.89.45.27.98.26,1.47.42.31.1.64.16.93.26.27.09.55.3.81.23-.31-.8-.76-1.62-1.11-2.45-.37-.85-.77-1.76-1.1-2.61-.77-1.99-1.3-3.92-1.59-5.97.32.55.88,1.76,1.47,1.98-.22-1.44-1.44-3.25-.99-4.66.24.65.87,1.42,1.36,1.84-.3-.67-.75-1.57-.91-2.27-.18-.77-.11-1.41-.17-2.17.26.61.57,1.58,1.21,1.79-.6-1.59-.95-3.96-.32-5.53.26.39.48.92.62,1.36.17.49.36.88.56,1.36.3.68.93,1.69,1.74,3,1.07,1.71,2.92,3.11,3.89,4.93.73,1.37.96,3,1.28,4.48.15.67.22,1.01.46,1.77.24.76.45,1.21.81,1.83-.36-.62.01-.83-.05-2.09-.05-1.23.98-1.96,1.8-2.19.7-.19,1.54.46,1.99,1.06.24.32.38.74.54,1.11.24.55.51.64.93,1-.86.13-1.74-.02-2.05,1.11-.24.87-.07,1.94.04,2.77.11.86.41,1.71.49,2.57.08.94-.07,1.83-.65,2.86-.51.91-1.02,1.52-1.72,2.32-.6.69-1.2,1.22-2.05,1.63-.79.39-1.74.63-2.57.97-.35.14-.83.26-1.1.5-.29.27-.5.63-.8.92-.77.71-1.41,1.8-2.51,2.03-.27-.54-.22-.42-.72-.53-.58-.12-.31-.36-.45-.84-.13-.4-.54-.6-.72-.98-.35-.71.13-.78.63-.9.81-.18,1.62-.17,2.4-.46.4-.14.88-.29,1.19-.58.34-.31.36-.74.48-1.17-.52-.07-1.22.09-1.74.1-.69.02-1.35.24-2.05.18-1.22-.12-2.6-.21-3.72-.97.71-.36,1.26-.55,1.67-1.24-.41-.09-.87.31-1.27.42-.39.11-1,.1-1.44.14-.91.07-1.59-.41-2.36-.87.59,0,1.56.33,2.04-.2.34-.36-.16-.28-.47-.34-.3-.05-.62-.16-.92-.21-.65-.13-1.38-.26-2.04-.6-.58-.3-1.21-.71-1.63-1.2.66,0,1.29-.06,1.92-.37-.31-.14-.73-.14-1.06-.24-.39-.13-.73-.31-1.11-.46-.71-.3-1.3-.82-1.83-1.38.78.29,1.6.18,2.35-.17-.61-.5-2.01-.41-2.74-.56-.74-.15-1.64-.48-1.94-1.35.64.02,1.34.13,2,.06-.21-.47-1.2-.92-1.61-1.25-.6-.46-.94-1.08-1.26-1.82"/>
          <path class="cls-6" d="M685.82,257.66c.15.48,1.83,1.07,2.32,1.18.97.23,2.12.31,3.07.21,1.78-.19,3.34-.8,5.14-.61,1.13.13,2.08.3,3.09.89.45.27.98.26,1.47.41.31.09.63.16.93.26.27.09.55.3.81.23-.3-.81-.75-1.62-1.11-2.45-.36-.85-.77-1.75-1.1-2.6-.77-1.98-1.3-3.92-1.59-5.97.32.55.88,1.76,1.47,1.98-.22-1.44-1.45-3.25-.99-4.66.25.65.87,1.42,1.36,1.84-.3-.67-.75-1.57-.9-2.27-.18-.77-.11-1.41-.17-2.17.26.61.57,1.58,1.21,1.79-.6-1.59-.95-3.96-.32-5.53.25.39.47.92.62,1.36.17.49.36.88.56,1.36.3.68.93,1.69,1.74,3,1.07,1.71,2.92,3.11,3.89,4.93.73,1.37.96,3,1.29,4.48.15.67.22,1.01.46,1.77.24.76.45,1.2.81,1.82-.36-.62.01-.83-.05-2.09-.05-1.23.98-1.96,1.8-2.19.7-.19,1.54.46,1.99,1.06.24.32.38.74.54,1.11.24.55.52.64.94,1-.86.13-1.74-.02-2.05,1.1-.24.87-.07,1.94.04,2.78.11.86.41,1.71.49,2.57.09.94-.07,1.83-.64,2.87-.51.91-1.02,1.51-1.72,2.32-.6.69-1.2,1.22-2.05,1.63-.79.39-1.74.63-2.57.97-.35.14-.83.26-1.1.5-.29.28-.49.63-.8.92-.77.71-1.41,1.8-2.51,2.03-.27-.54-.22-.42-.73-.53-.58-.12-.3-.36-.45-.84-.13-.4-.54-.6-.72-.99-.35-.71.12-.78.63-.9.81-.18,1.61-.17,2.39-.46.4-.14.88-.29,1.19-.58.34-.31.36-.73.49-1.17-.52-.07-1.23.09-1.75.1-.69.02-1.35.24-2.05.18-1.22-.12-2.59-.21-3.72-.97.72-.35,1.27-.55,1.68-1.23-.41-.09-.87.3-1.26.41-.39.11-1,.1-1.44.14-.9.07-1.59-.41-2.35-.87.58,0,1.55.33,2.03-.2.34-.37-.15-.28-.46-.34-.3-.05-.63-.16-.92-.22-.66-.12-1.38-.26-2.04-.6-.57-.3-1.21-.71-1.63-1.2.67,0,1.29-.06,1.93-.37-.31-.14-.73-.13-1.06-.24-.39-.13-.74-.31-1.12-.46-.71-.3-1.3-.82-1.82-1.38.78.28,1.6.18,2.35-.18-.61-.5-2.01-.41-2.75-.56-.74-.15-1.64-.49-1.94-1.35.64.02,1.34.13,2,.06-.21-.47-1.2-.92-1.61-1.25-.61-.46-.94-1.08-1.27-1.82"/>
        </g>
      </g>
    </g>
  </g>
</svg>