<?xml version="1.0" encoding="UTF-8"?>
<svg xmlns="http://www.w3.org/2000/svg" xmlns:xlink="http://www.w3.org/1999/xlink" viewBox="0 0 1920 600">
  <defs>
    <style>
      .cls-1 {
        fill: url(#linear-gradient-2);
      }

      .cls-2 {
        fill: #fff;
      }

      .cls-3 {
        fill: none;
      }

      .cls-4 {
        fill: url(#linear-gradient-4);
      }

      .cls-5 {
        fill: url(#linear-gradient-3);
      }

      .cls-6 {
        fill: url(#linear-gradient-5);
      }

      .cls-7 {
        isolation: isolate;
      }

      .cls-8 {
        mix-blend-mode: multiply;
      }

      .cls-9 {
        fill: url(#linear-gradient-6);
      }

      .cls-10 {
        fill: #00519e;
      }

      .cls-11 {
        fill: url(#linear-gradient);
      }

      .cls-12 {
        clip-path: url(#clippath);
      }
    </style>
    <clipPath id="clippath">
      <rect class="cls-3" x="-1088.07" y="49.89" width="1068.07" height="712.05" transform="translate(-1108.07 811.82) rotate(-180)"/>
    </clipPath>
    <linearGradient id="linear-gradient" x1="-3576.26" y1="-.08" x2="-3576.26" y2="425.53" gradientTransform="translate(-3979.68) rotate(-180) scale(1 -1)" gradientUnits="userSpaceOnUse">
      <stop offset="0" stop-color="#ffd83b"/>
      <stop offset="1" stop-color="#ff8c3b"/>
    </linearGradient>
    <linearGradient id="linear-gradient-2" x1="-3615.96" y1="227.17" x2="-3615.96" y2="816.35" gradientTransform="translate(-3979.68) rotate(-180) scale(1 -1)" gradientUnits="userSpaceOnUse">
      <stop offset="0" stop-color="#2c8a41"/>
      <stop offset="1" stop-color="#1ce449"/>
    </linearGradient>
    <linearGradient id="linear-gradient-3" x1="-3584.73" y1="95.5" x2="-3584.73" y2="442.85" xlink:href="#linear-gradient"/>
    <linearGradient id="linear-gradient-4" x1="-3625.61" y1="236.15" x2="-3625.61" y2="762.08" xlink:href="#linear-gradient-2"/>
    <linearGradient id="linear-gradient-5" x1="-3593.07" y1="180.87" x2="-3593.07" y2="468.25" xlink:href="#linear-gradient"/>
    <linearGradient id="linear-gradient-6" x1="-3630.21" y1="246.57" x2="-3630.21" y2="701.44" xlink:href="#linear-gradient-2"/>
  </defs>
  <g class="cls-7">
    <g id="Layer_1" data-name="Layer 1">
      <g class="cls-12">
        <g>
          <g>
            <path class="cls-2" d="M-898.24,314.23c18.25,20.84,36.45,41.9,54.13,57.46,23.69,20.79,55.68,21.54,83.65,6.06,32.89-18.28,57.7-47.02,95.86-60.93,35.46-12.85,87.99-4.42,133.61,16.54,49.69,22.88,90.41,56.6,133.18,72.85,38.51,14.54,83.09,3.97,120.01-21.85,40.35-28.28,75.18-70.77,129.49-84.62,27.69-7,61.32-2.04,98.9,13.79,40.23,16.96,84.69,45.9,131.38,83.36,55.97,82.22,118.22,167.24,95.61,236.27-47.03-38.35-93.65-70.57-137.07-94.23-40.56-22.09-77.8-36.34-110.79-39.21-62.97-5.37-117.81,21.71-172.32,34.16-49.98,11.34-97.52-1.55-132.32-36.1-38.91-38.76-74.26-89.16-125.55-123.02-48.14-31.7-103.53-42.62-138.72-28.91-39.2,15.39-65.89,50.1-102.28,77.28-32.59,24.3-67.77,36.22-87.54,21.47-20.28-15.25-32.31-47.74-48.91-71.76-1.54-18.92-11.81-38.82-25.19-58.6h4.87Z"/>
            <path class="cls-11" d="M-880.07,314.23c31.02,27.85,66.18,41,95.07,33.11,35.37-9.77,60.02-36.37,95.74-52.28,33.22-14.72,78.95-12.2,116.49-.3,42.81,13.59,81.57,32.49,117.96,30.58,20.22-1.1,40.14-8.08,58.65-19.77,21.16-13.39,41.05-33.01,62.08-55.83,24.12-26.19,49.33-55.31,77.5-81.98,30.58-28.95,63.51-54.54,97.63-71.05,33.91-16.35,68.41-20.62,97.95-9.47C-26.94,100.17,3.61,132.18,36.16,173.92c-33.65,73.86,1.62,159.63,55.93,237.64C45.05,374.21.03,345.12-40.74,327.7c-38.06-16.25-72.07-21.86-100.05-15.59-54.7,12.39-90.48,53.48-131.87,80.61-38.12,24.93-83.48,34.22-122.08,18.63-43.05-17.48-83.81-52.04-133.86-75.53-46.06-21.58-98.83-30.15-134.24-17.24-38.19,14.02-62.97,43.09-95.88,61.86-28.08,15.96-60.04,15.86-83.23-4.55-18.69-16.5-37.74-39.5-56.99-61.66h18.86Z"/>
            <path class="cls-1" d="M-6.09,807.29c-40.38-44.43-76.55-82.21-110.11-109.08-31.28-25.04-60.87-40.83-88.86-44.63-56.16-7.52-106.48,16.28-145.91,16.35-18.58,0-35.56-5.52-48.33-17.72-13.87-13.3-23.78-34.68-31.09-60.16-16.8-58.67-24.87-129.23-65.75-175.96-37.48-42.68-94.75-59.75-132.33-47.17-41.72,14.09-73.48,53.37-118.02,89.22-42.52,34.2-87.95,59.34-117.15,52.21-24.11-5.98-35.27-34.62-42.7-57.14,15.68-26.94,31.31-52.33,28.26-82.09,16.82,24.07,29.04,56.58,49.33,71.99,19.7,14.86,54.73,3.21,87.15-20.89,36.24-26.99,62.84-61.58,102-76.94,35.18-13.7,90.54-2.83,138.75,28.65,51.37,33.63,87.01,83.63,126.2,121.95,35.06,34.16,82.82,46.61,132.86,35.04,54.57-12.69,109.29-39.84,172.33-34.67,33.04,2.77,70.4,16.91,111.07,38.88,43.55,23.53,90.27,55.6,137.28,93.78-22.34,76.75-113.89,122.23-184.99,178.39Z"/>
          </g>
          <g class="cls-8">
            <path class="cls-2" d="M-899.63,314.23c20.25,23.42,40.09,48.49,59.77,65.89,22.73,20.03,54.69,19.39,82.9,2.92,32.94-19.3,57.72-48.69,95.94-62.76,35.36-12.94,88.33-4.18,134.74,17.98,50.43,24.13,91.24,59.57,134.54,78.28,38.73,16.64,84.84,8.57,124.18-15.5,42.5-26.06,79.41-65.76,134.62-76.65,28.33-5.52,62.74.77,101.25,17.45,41.27,17.89,86.75,47.1,133.99,84.28,44.14,62.81,86.5,126.74,80.46,183.26-46.91-37.51-93.96-68.93-137.94-91.89-41.09-21.44-78.83-35.03-111.97-37.32-63.11-4.24-117.06,23.3-171.63,37.16-50.15,12.67-98.81,2.36-134.95-29.99-40.4-36.28-77.23-84.6-128.94-117.19-48.43-30.45-103.6-41.12-138.74-27.51-39.02,15.21-65.23,49.21-100.82,75.38-31.72,23.27-66.11,33.76-85.65,18.39-20.4-16.15-33.54-48.82-51.41-73.12-3.37-16.21-12.42-32.75-23.58-49.07h3.25Z"/>
            <path class="cls-5" d="M-888.31,314.23c7.01,6.88,13.98,13.48,20.81,19.62,29.18,26.17,63.67,36.09,92.76,25.57,34.42-12.54,58.9-40.22,95.29-55.85,33.66-14.39,81.81-10.02,122.07,4.96,45.38,16.91,83.69,40.73,120.63,43.87,38.63,3.19,75.04-20.98,107.46-56.76,39.36-43.46,82.51-99.88,142.18-125.33,61.99-26.25,133.08,9.2,206.95,83.44,3.64,60.59,46.74,121.41,90.45,183.77-47.39-37.09-93.24-66.4-134.91-84.64-38.88-17-73.63-23.8-102.27-18.84-55.68,9.77-93.57,48.43-136.98,73.65-40.3,23.35-86.96,30.39-125.75,12.89-43.44-19.7-84.24-55.81-134.9-80.41-46.72-22.65-99.88-31.51-135.2-18.52-38.24,14.16-63.03,43.82-96.01,63.5-28.31,16.84-60.27,17.99-82.64-1.75-20.44-18.11-40.79-44.88-61.82-69.16h11.88Z"/>
            <path class="cls-4" d="M67.48,754c-44.92-44.32-86.13-81.64-123.83-108.23-35.06-24.71-67.51-40.27-97.41-43.4-59.38-6.1-112.93,22.57-156.59,27.61-20.86,2.36-39.94-1.12-55.11-12.19-16.04-11.74-28.58-31.88-39.29-55.81-23.94-53.6-43.72-117.95-89.69-160.11-42.5-38.84-99.87-54.19-136.98-41.45-41.12,14.24-70.73,51.7-111.23,84.49-38.31,30.99-79.42,52.35-104.87,43.05-22.64-8.38-33.47-38.35-43.69-61.68,10.11-19.81,16.66-41.82,11.63-64.31,18.05,24.34,31.36,57.03,51.78,73.31,19.52,15.45,53.8,5.19,85.4-17.94,35.49-26.03,61.64-59.92,100.64-75.12,35.14-13.6,90.29-2.97,138.75,27.31,51.75,32.41,88.77,80.44,129.35,116.37,36.3,32.03,85.08,41.98,135.21,29.13,54.53-14.06,108.31-41.7,171.4-37.64,33.14,2.19,70.93,15.68,112.08,37.02,44.04,22.86,91.15,54.19,138.05,91.61-4.67,58.29-57.74,106.3-115.59,148Z"/>
          </g>
          <g class="cls-8">
            <path class="cls-2" d="M-901.19,314.23c22.38,25.53,43.44,55.3,65.13,74.53,21.83,19.27,53.84,17.17,82.35-.32,33.06-20.34,57.88-50.41,96.17-64.65,35.27-13.03,88.66-3.95,135.77,19.45,51.07,25.41,91.83,62.67,135.47,83.98,38.9,18.9,86.39,13.47,128.25-8.76,44.94-23.93,84.58-60.93,141.13-68.83,29.22-4.02,64.52,3.63,103.94,21.15,42.26,18.8,88.57,48.24,136.02,85.11,29.86,43.57,55.57,87.32,59.76,128.64-46.87-36.9-94.2-67.69-138.48-89.97-41.36-20.8-79.3-33.62-112.29-35.16-62.75-2.82-115.19,25.51-169.19,40.91-49.79,14.13-99.19,6.54-136.41-23.48-41.63-33.7-79.69-79.98-131.67-111.3-48.56-29.19-103.48-39.61-138.6-26.1-38.85,15.04-64.65,48.33-99.56,73.48-30.94,22.25-64.64,31.26-84.15,15.26-20.69-17.07-35.18-49.97-54.38-74.6-4.35-13.17-11.98-26.35-20.91-39.32h1.64Z"/>
            <path class="cls-6" d="M-894.72,314.23c13.92,14.96,27.87,29.29,41.28,41.37,26.26,23.6,59.48,29.44,88.41,16.22,33.58-15.44,58.04-44.28,95.14-59.66,34.15-14.08,84.59-7.89,127.72,10.28,48.19,20.34,87.12,49,126.66,58.25,37.37,8.66,76.76-8.74,109.27-39.17,36.6-34.28,72.1-82.28,127.9-100.78,28.33-9.32,61.58-5.72,97.63,9.41,38.48,16.17,80.27,45.24,124,82.85,21.97,43.84,55.22,86.41,85.16,130.83-47.5-36.82-94.02-66.32-136.53-85.35-39.66-17.73-75.21-25.73-104.69-22.09-56.96,7.16-97.4,43.47-143.02,66.83-42.52,21.72-90.33,26.38-129.24,6.85-43.67-22.03-84.39-59.77-135.57-85.51-47.31-23.75-100.83-32.9-136.08-19.82-38.31,14.31-63.14,44.57-96.26,65.18-28.6,17.75-60.64,20.2-82.22,1.13-22.23-19.72-43.52-50.88-66.51-76.83h6.96Z"/>
            <path class="cls-9" d="M138.64,694.45c-46.74-41.13-91.82-75.69-133.39-100.76-38.69-23.31-74.29-38.26-106.35-41.1-62.52-5.42-118.59,24-168.57,32.56-46.81,7.92-87.37-14.03-115.53-55.32-31.99-47.04-61.16-104.4-110.89-142.26-45.96-34.89-103.01-48.66-139.6-35.74-40.46,14.41-68.33,50.08-105.57,79.75-34.72,27.63-71.91,44.55-93.8,32.89-20.92-11.25-31.71-42.06-45.19-65.81,3.65-14.33,3.34-30.48-1.97-46.07,19.32,24.67,33.96,57.58,54.68,74.74,19.51,16.06,53.14,7.21,84.01-14.93,34.85-25.05,60.61-58.27,99.45-73.3,35.12-13.5,90.03-3.12,138.6,25.96,51.98,31.19,90.15,77.27,131.88,110.72,37.31,29.8,86.75,37.14,136.47,22.87,53.91-15.55,106.17-43.98,168.87-41.32,32.97,1.46,70.9,14.19,112.28,34.93,44.3,22.21,91.65,52.95,138.53,89.81,4.81,40.56-13.32,79.89-43.89,112.37Z"/>
          </g>
        </g>
      </g>
      <circle class="cls-2" cx="960" cy="311.51" r="149.77"/>
      <path class="cls-10" d="M960,153.85c-86.48,0-156.6,70.1-156.6,156.59s70.12,156.59,156.6,156.59,156.59-70.11,156.59-156.59-70.12-156.59-156.59-156.59ZM1105.43,320.15c-4,.08-7.18,3.4-7.08,7.41.07,3.33,2.38,6.05,5.46,6.84-.59,3.56-1.31,7.08-2.15,10.55l-73.14-23.33-49.47-8.34c.13-.85.24-1.71.26-2.59l49.94,5.25,76.55-5.36c0,3.22-.14,6.41-.35,9.58ZM1098.38,356.31c-.14-.04-.27-.1-.42-.14-3.89-.95-7.81,1.45-8.74,5.35-.82,3.4.9,6.82,3.95,8.25-1.53,3.41-3.14,6.77-4.91,10.03l-64.93-41.2-45.67-20.58c.38-.86.65-1.77.9-2.68l47.17,17.2,75.69,13.39c-.88,3.52-1.91,6.97-3.04,10.37ZM1024.49,440.41c-2.11-3.4-6.6-4.43-9.99-2.3-2.98,1.86-4.14,5.54-2.93,8.71-3.1,1.17-6.25,2.25-9.45,3.21l-17.22-75.14-17.96-46.69c.82-.31,1.58-.72,2.35-1.13l20.82,45.57,43.74,63.49c-2.95,1.74-5.97,3.38-9.06,4.92-.1-.21-.19-.43-.32-.63ZM986.4,453.09c-1.18-3.83-5.25-5.96-9.07-4.77-3.26,1.01-5.27,4.1-5.07,7.36-3.71.31-7.45.5-11.23.53l4.61-76.93-4.1-49.89c1.15-.09,2.27-.26,3.35-.54l9.18,49.22,27.1,72.24c-4.77,1.41-9.65,2.57-14.62,3.48-.05-.23-.07-.46-.14-.69ZM905.31,437.93c-3.41-.74-6.78,1.03-8.16,4.09-2.64-1.26-5.22-2.62-7.78-4.03l41.66-64.81,20.82-45.49c.85.4,1.74.7,2.66.97l-17.49,46.94-13.96,75.91c-4.26-1.11-8.45-2.43-12.56-3.9.13-.34.26-.68.34-1.05.86-3.9-1.62-7.78-5.53-8.63ZM832.03,364.27c-1.9-2.89-5.5-3.97-8.61-2.8-1.13-3.05-2.17-6.13-3.1-9.27l74.84-17.23,46.78-18.04c.31.86.71,1.65,1.14,2.45l-45.5,21.13-63.09,44.05c-1.9-3.2-3.68-6.48-5.34-9.84.28-.13.55-.25.8-.42,3.35-2.19,4.29-6.69,2.09-10.04ZM814.73,298.52c.35.03.71.06,1.08.04,4-.25,7.03-3.71,6.77-7.7-.22-3.39-2.76-6.08-5.97-6.65.55-3.05,1.17-6.07,1.92-9.05l72.95,23.27,49.51,8.35c-.14.84-.22,1.71-.25,2.59l-49.97-5.26-76.54,5.36c.03-3.68.21-7.33.5-10.95ZM822.23,262.76c.34.12.67.24,1.04.31,3.93.79,7.74-1.78,8.51-5.71.66-3.37-1.14-6.65-4.15-8,1.39-3.02,2.87-6,4.46-8.91l64.58,40.97,45.83,20.66c-.4.85-.69,1.74-.97,2.66l-47.26-17.25-75.5-13.36c.99-3.86,2.17-7.64,3.46-11.36ZM896.38,180.71c2.26,3.31,6.78,4.14,10.08,1.87,2.87-1.97,3.88-5.66,2.59-8.76,2.96-1.1,5.96-2.11,9.02-3.02l17.04,74.35,18.07,47c-.82.31-1.58.7-2.34,1.11l-20.96-45.86-43.33-62.88c3-1.75,6.06-3.41,9.2-4.96.17.4.38.79.63,1.15ZM816.68,337.08c.32-.06.65-.11.96-.22,3.8-1.26,5.85-5.38,4.58-9.18-1.08-3.22-4.21-5.17-7.45-4.91-.34-4.04-.55-8.13-.55-12.26l76.52,4.88,50.06-3.91c.08,1.18.24,2.32.52,3.43l-49.34,9.24-71.94,27.07c-1.34-4.63-2.46-9.34-3.35-14.14ZM955.17,291.54l-9.24-49.57-26.81-71.47c4.08-1.19,8.23-2.22,12.45-3.05.07.44.17.88.33,1.32,1.34,3.76,5.5,5.73,9.27,4.37,3.28-1.17,5.2-4.48,4.74-7.8,4.29-.41,8.63-.63,13.01-.66l-4.56,76.09,4.13,50.24c-1.13.09-2.24.25-3.31.53ZM978.38,172.22c3.34,0,6.11-2.26,6.96-5.34,3.51.61,6.97,1.32,10.38,2.18l-23.66,72.51-8.71,49.61c-.91-.17-1.83-.25-2.78-.29l5.07-50.15-5.62-76.11c3.74,0,7.44.19,11.11.46.08,3.94,3.28,7.11,7.24,7.11ZM1013,181.49c3.24.86,6.53-.63,8.11-3.41,3.1,1.43,6.13,2.94,9.11,4.58l-41.26,64.2-20.95,45.78c-.84-.39-1.74-.67-2.64-.94l17.6-47.26,13.82-75.1c3.74.97,7.42,2.12,11.04,3.38-.96,3.84,1.33,7.76,5.17,8.77ZM1044.11,199.29c2.93,1.66,6.5,1.05,8.75-1.24,3.4,2.8,6.66,5.78,9.79,8.88l-57.39,50.37-32.77,38.24c-.83-.71-1.7-1.34-2.64-1.9l28.96-41.25,32.36-69.17c3.48,1.95,6.89,4.02,10.2,6.24-1.94,3.48-.73,7.88,2.74,9.84ZM1069.65,224.44c2.41,2.36,6.03,2.68,8.79,1.02,2.18,3.03,4.27,6.12,6.21,9.31l-67.97,35.04-41,29.13c-.51-.7-1.05-1.37-1.65-2l39.17-31.63,50.22-57.62c2.1,2.12,4.11,4.31,6.09,6.55-2.76,2.86-2.71,7.42.14,10.2ZM1087.92,255.29c1.73,2.92,5.2,4.15,8.31,3.21,1.17,3.08,2.27,6.21,3.23,9.39l-74.62,17.18-46.88,18.08c-.33-.84-.76-1.63-1.2-2.42l45.66-21.21,62.75-43.81c1.88,3.13,3.62,6.35,5.26,9.63,0,0-.01,0-.02.01-3.44,2.05-4.56,6.51-2.51,9.94ZM1102.98,281.83c-.11.03-.21.03-.31.06-3.85,1.1-6.08,5.13-4.96,8.97.96,3.33,4.08,5.42,7.39,5.23.43,4.42.66,8.9.69,13.42l-76.5-4.88-50.09,3.92c-.1-1.17-.29-2.31-.59-3.41l49.44-9.26,71.72-26.99c1.26,4.24,2.34,8.55,3.22,12.93ZM865.35,199.6c.26.3.53.6.83.87,3.03,2.62,7.62,2.27,10.23-.76,2.22-2.59,2.28-6.29.38-8.95,2.87-2,5.8-3.9,8.82-5.69l34.53,68.04,28.88,41.2c-.79.54-1.52,1.17-2.21,1.82l-31.99-38.89-58.07-49.72c2.75-2.75,5.64-5.38,8.59-7.91ZM856.01,208.29l50.87,56.94,38.51,32.43c-.7.81-1.33,1.66-1.89,2.58l-41.36-28.69-69.52-32.02c2.04-3.65,4.2-7.22,6.53-10.67.32.23.66.45,1.03.63,3.59,1.76,7.93.25,9.68-3.35,1.51-3.11.59-6.77-2.01-8.84,2.6-3.12,5.32-6.12,8.16-9.01ZM848.46,404.29c.33-.26.64-.53.92-.84,2.68-2.97,2.43-7.56-.55-10.24-2.61-2.34-6.44-2.45-9.15-.44-1.63-2.38-3.2-4.82-4.7-7.31l68.35-35.23,40.81-28.99c.5.71,1.07,1.37,1.66,2.01l-38.99,31.49-50.61,58.07c-2.69-2.73-5.27-5.57-7.74-8.5ZM856.89,413.52l57.85-50.77,32.6-38.03c.83.72,1.69,1.38,2.63,1.95l-28.78,40.99-32.67,69.84c-4.1-2.31-8.08-4.82-11.92-7.51.22-.3.44-.61.62-.96,1.84-3.56.42-7.94-3.15-9.75-3.1-1.59-6.78-.73-8.9,1.84-2.84-2.44-5.62-4.96-8.27-7.61ZM947.82,455.69c.02-.25.05-.5.04-.76-.16-3.99-3.54-7.1-7.55-6.93-3.39.14-6.13,2.6-6.77,5.8-3.21-.59-6.4-1.25-9.52-2.05l23.93-73.29,8.64-49.26c.92.17,1.86.25,2.82.28l-5.04,49.79,5.68,76.96h-.04c-4.1,0-8.16-.21-12.18-.54ZM1055.5,420.55c-.21-.26-.42-.53-.67-.77-2.91-2.75-7.51-2.59-10.25.33-2.46,2.62-2.58,6.59-.44,9.35-3.06,2.16-6.19,4.23-9.41,6.16l-34.87-68.7-28.72-40.96c.79-.56,1.54-1.18,2.24-1.84l31.8,38.68,58.51,50.1c-2.62,2.65-5.36,5.19-8.18,7.63ZM1064.38,412.18l-51.26-57.38-38.33-32.28c.68-.82,1.31-1.69,1.85-2.63l41.22,28.58,69.9,32.2c-2.14,3.89-4.45,7.69-6.93,11.36-.23-.17-.46-.35-.73-.5-3.52-1.91-7.92-.59-9.82,2.94-1.69,3.14-.83,6.95,1.87,9.1-2.47,2.97-5.07,5.83-7.77,8.6Z"/>
    </g>
  </g>
</svg>