<svg width="314" height="314" viewBox="0 0 314 314" fill="none" xmlns="http://www.w3.org/2000/svg">
<path d="M156.6 307.43C239.315 307.43 306.37 240.376 306.37 157.66C306.37 74.9445 239.315 7.89014 156.6 7.89014C73.8839 7.89014 6.82959 74.9445 6.82959 157.66C6.82959 240.376 73.8839 307.43 156.6 307.43Z" fill="white"/>
<path d="M156.6 0C70.12 0 0 70.1 0 156.59C0 243.08 70.12 313.18 156.6 313.18C243.08 313.18 313.19 243.07 313.19 156.59C313.19 70.11 243.07 0 156.6 0ZM302.03 166.3C298.03 166.38 294.85 169.7 294.95 173.71C295.02 177.04 297.33 179.76 300.41 180.55C299.82 184.11 299.1 187.63 298.26 191.1L225.12 167.77L175.65 159.43C175.78 158.58 175.89 157.72 175.91 156.84L225.85 162.09L302.4 156.73C302.4 159.95 302.26 163.14 302.05 166.31L302.03 166.3ZM294.98 202.46C294.84 202.42 294.71 202.36 294.56 202.32C290.67 201.37 286.75 203.77 285.82 207.67C285 211.07 286.72 214.49 289.77 215.92C288.24 219.33 286.63 222.69 284.86 225.95L219.93 184.75L174.26 164.17C174.64 163.31 174.91 162.4 175.16 161.49L222.33 178.69L298.02 192.08C297.14 195.6 296.11 199.05 294.98 202.45V202.46ZM221.09 286.56C218.98 283.16 214.49 282.13 211.1 284.26C208.12 286.12 206.96 289.8 208.17 292.97C205.07 294.14 201.92 295.22 198.72 296.18L181.5 221.04L163.54 174.35C164.36 174.04 165.12 173.63 165.89 173.22L186.71 218.79L230.45 282.28C227.5 284.02 224.48 285.66 221.39 287.2C221.29 286.99 221.2 286.77 221.07 286.57L221.09 286.56ZM183 299.24C181.82 295.41 177.75 293.28 173.93 294.47C170.67 295.48 168.66 298.57 168.86 301.83C165.15 302.14 161.41 302.33 157.63 302.36L162.24 225.43L158.14 175.54C159.29 175.45 160.41 175.28 161.49 175L170.67 224.22L197.77 296.46C193 297.87 188.12 299.03 183.15 299.94C183.1 299.71 183.08 299.48 183.01 299.25L183 299.24ZM101.91 284.08C98.5 283.34 95.13 285.11 93.75 288.17C91.11 286.91 88.53 285.55 85.97 284.14L127.63 219.33L148.45 173.84C149.3 174.24 150.19 174.54 151.11 174.81L133.62 221.75L119.66 297.66C115.4 296.55 111.21 295.23 107.1 293.76C107.23 293.42 107.36 293.08 107.44 292.71C108.3 288.81 105.82 284.93 101.91 284.08ZM28.63 210.42C26.73 207.53 23.13 206.45 20.02 207.62C18.89 204.57 17.85 201.49 16.92 198.35L91.7599 181.12L138.54 163.08C138.85 163.94 139.25 164.73 139.68 165.53L94.18 186.66L31.09 230.71C29.19 227.51 27.41 224.23 25.75 220.87C26.03 220.74 26.3 220.62 26.55 220.45C29.9 218.26 30.84 213.76 28.64 210.41L28.63 210.42ZM11.33 144.67C11.68 144.7 12.04 144.73 12.41 144.71C16.41 144.46 19.44 141 19.18 137.01C18.96 133.62 16.42 130.93 13.21 130.36C13.76 127.31 14.38 124.29 15.13 121.31L88.08 144.58L137.59 152.93C137.45 153.77 137.37 154.64 137.34 155.52L87.37 150.26L10.83 155.62C10.86 151.94 11.04 148.29 11.33 144.67ZM18.83 108.91C19.17 109.03 19.5 109.15 19.87 109.22C23.8 110.01 27.61 107.44 28.38 103.51C29.04 100.14 27.24 96.86 24.23 95.51C25.62 92.49 27.1 89.51 28.69 86.6L93.27 127.57L139.1 148.23C138.7 149.08 138.41 149.97 138.13 150.89L90.87 133.64L15.37 120.28C16.36 116.42 17.54 112.64 18.83 108.92V108.91ZM92.98 26.86C95.24 30.17 99.76 31 103.06 28.73C105.93 26.76 106.94 23.07 105.65 19.97C108.61 18.87 111.61 17.86 114.67 16.95L131.71 91.3L149.78 138.3C148.96 138.61 148.2 139 147.44 139.41L126.48 93.55L83.15 30.67C86.15 28.92 89.21 27.26 92.35 25.71C92.52 26.11 92.73 26.5 92.98 26.86ZM13.28 183.23C13.6 183.17 13.93 183.12 14.24 183.01C18.04 181.75 20.0899 177.63 18.8199 173.83C17.7399 170.61 14.61 168.66 11.37 168.92C11.03 164.88 10.8199 160.79 10.8199 156.66L87.34 161.54L137.4 157.63C137.48 158.81 137.64 159.95 137.92 161.06L88.58 170.3L16.64 197.37C15.3 192.74 14.18 188.03 13.29 183.23H13.28ZM151.77 137.69L142.53 88.12L115.72 16.65C119.8 15.46 123.95 14.43 128.17 13.6C128.24 14.04 128.34 14.48 128.5 14.92C129.84 18.68 134 20.65 137.77 19.29C141.05 18.12 142.97 14.81 142.51 11.49C146.8 11.08 151.14 10.86 155.52 10.83L150.96 86.92L155.09 137.16C153.96 137.25 152.85 137.41 151.78 137.69H151.77ZM174.98 18.37C178.32 18.37 181.09 16.11 181.94 13.03C185.45 13.64 188.91 14.35 192.32 15.21L168.66 87.72L159.95 137.33C159.04 137.16 158.12 137.08 157.17 137.04L162.24 86.89L156.62 10.78C160.36 10.78 164.06 10.97 167.73 11.24C167.81 15.18 171.01 18.35 174.97 18.35L174.98 18.37ZM209.6 27.64C212.84 28.5 216.13 27.01 217.71 24.23C220.81 25.66 223.84 27.17 226.82 28.81L185.56 93.01L164.61 138.79C163.77 138.4 162.87 138.12 161.97 137.85L179.57 90.59L193.39 15.49C197.13 16.46 200.81 17.61 204.43 18.87C203.47 22.71 205.76 26.63 209.6 27.64ZM240.71 45.44C243.64 47.1 247.21 46.49 249.46 44.2C252.86 47 256.12 49.98 259.25 53.08L201.86 103.45L169.09 141.69C168.26 140.98 167.39 140.35 166.45 139.79L195.41 98.54L227.77 29.37C231.25 31.32 234.66 33.39 237.97 35.61C236.03 39.09 237.24 43.49 240.71 45.45V45.44ZM266.25 70.59C268.66 72.95 272.28 73.27 275.04 71.61C277.22 74.64 279.31 77.73 281.25 80.92L213.28 115.96L172.28 145.09C171.77 144.39 171.23 143.72 170.63 143.09L209.8 111.46L260.02 53.84C262.12 55.96 264.13 58.15 266.11 60.39C263.35 63.25 263.4 67.81 266.25 70.59ZM284.52 101.44C286.25 104.36 289.72 105.59 292.83 104.65C294 107.73 295.1 110.86 296.06 114.04L221.44 131.22L174.56 149.3C174.23 148.46 173.8 147.67 173.36 146.88L219.02 125.67L281.77 81.86C283.65 84.99 285.39 88.21 287.03 91.49C287.03 91.49 287.02 91.49 287.01 91.5C283.57 93.55 282.45 98.01 284.5 101.44H284.52ZM299.58 127.98C299.47 128.01 299.37 128.01 299.27 128.04C295.42 129.14 293.19 133.17 294.31 137.01C295.27 140.34 298.39 142.43 301.7 142.24C302.13 146.66 302.36 151.14 302.39 155.66L225.89 150.78L175.8 154.7C175.7 153.53 175.51 152.39 175.21 151.29L224.65 142.03L296.37 115.04C297.63 119.28 298.71 123.59 299.59 127.97L299.58 127.98ZM61.95 45.75C62.21 46.05 62.48 46.35 62.78 46.62C65.81 49.24 70.3999 48.89 73.0099 45.86C75.2299 43.27 75.29 39.57 73.39 36.91C76.26 34.91 79.19 33.01 82.21 31.22L116.74 99.26L145.62 140.46C144.83 141 144.1 141.63 143.41 142.28L111.42 103.39L53.35 53.67C56.1 50.92 58.99 48.29 61.94 45.76L61.95 45.75ZM52.61 54.44L103.48 111.38L141.99 143.81C141.29 144.62 140.66 145.47 140.1 146.39L98.74 117.7L29.22 85.68C31.26 82.03 33.42 78.46 35.75 75.01C36.07 75.24 36.41 75.46 36.78 75.64C40.37 77.4 44.71 75.89 46.46 72.29C47.97 69.18 47.05 65.52 44.45 63.45C47.05 60.33 49.77 57.33 52.61 54.44ZM45.06 250.44C45.39 250.18 45.7 249.91 45.98 249.6C48.66 246.63 48.41 242.04 45.43 239.36C42.82 237.02 38.99 236.91 36.28 238.92C34.65 236.54 33.08 234.1 31.58 231.61L99.93 196.38L140.74 167.39C141.24 168.1 141.81 168.76 142.4 169.4L103.41 200.89L52.8 258.96C50.11 256.23 47.53 253.39 45.06 250.46V250.44ZM53.49 259.67L111.34 208.9L143.94 170.87C144.77 171.59 145.63 172.25 146.57 172.82L117.79 213.81L85.12 283.65C81.02 281.34 77.04 278.83 73.2 276.14C73.42 275.84 73.6399 275.53 73.8199 275.18C75.6599 271.62 74.24 267.24 70.67 265.43C67.57 263.84 63.89 264.7 61.77 267.27C58.93 264.83 56.15 262.31 53.5 259.66L53.49 259.67ZM144.42 301.84C144.44 301.59 144.47 301.34 144.46 301.08C144.3 297.09 140.92 293.98 136.91 294.15C133.52 294.29 130.78 296.75 130.14 299.95C126.93 299.36 123.74 298.7 120.62 297.9L144.55 224.61L153.19 175.35C154.11 175.52 155.05 175.6 156.01 175.63L150.97 225.42L156.65 302.38H156.61C152.51 302.38 148.45 302.17 144.43 301.84H144.42ZM252.1 266.7C251.89 266.44 251.68 266.17 251.43 265.93C248.52 263.18 243.92 263.34 241.18 266.26C238.72 268.88 238.6 272.85 240.74 275.61C237.68 277.77 234.55 279.84 231.33 281.77L196.46 213.07L167.74 172.11C168.53 171.55 169.28 170.93 169.98 170.27L201.78 208.95L260.29 259.05C257.67 261.7 254.93 264.24 252.11 266.68L252.1 266.7ZM260.98 258.33L209.72 200.95L171.39 168.67C172.07 167.85 172.7 166.98 173.24 166.04L214.46 194.62L284.36 226.82C282.22 230.71 279.91 234.51 277.43 238.18C277.2 238.01 276.97 237.83 276.7 237.68C273.18 235.77 268.78 237.09 266.88 240.62C265.19 243.76 266.05 247.57 268.75 249.72C266.28 252.69 263.68 255.55 260.98 258.32V258.33Z" fill="#00519E"/>
</svg>
