<svg width="46" height="46" viewBox="0 0 46 46" fill="none" xmlns="http://www.w3.org/2000/svg">
<path d="M4.79166 5.27087C4.79166 4.88963 4.64021 4.52399 4.37062 4.25441C4.10104 3.98482 3.73541 3.83337 3.35416 3.83337C2.97291 3.83337 2.60727 3.98482 2.33769 4.25441C2.06811 4.52399 1.91666 4.88963 1.91666 5.27087V40.7292C1.91666 41.5227 2.56066 42.1667 3.35416 42.1667H38.3333C38.7146 42.1667 39.0802 42.0153 39.3498 41.7457C39.6194 41.4761 39.7708 41.1105 39.7708 40.7292C39.7708 40.348 39.6194 39.9823 39.3498 39.7127C39.0802 39.4432 38.7146 39.2917 38.3333 39.2917H4.79166V5.27087Z" fill="#0D5834"/>
<path d="M42.7033 14.9116C42.9573 14.6391 43.0955 14.2787 43.0889 13.9063C43.0823 13.5339 42.9315 13.1785 42.6681 12.9152C42.4047 12.6518 42.0494 12.5009 41.677 12.4944C41.3046 12.4878 40.9442 12.626 40.6717 12.8799L29.7083 23.8433L22.5783 16.7133C22.3088 16.4441 21.9434 16.2929 21.5625 16.2929C21.1816 16.2929 20.8162 16.4441 20.5467 16.7133L9.04667 28.2133C8.90543 28.3449 8.79215 28.5036 8.71359 28.6799C8.63502 28.8563 8.59277 29.0466 8.58937 29.2396C8.58596 29.4326 8.62147 29.6244 8.69376 29.8033C8.76606 29.9823 8.87367 30.1449 9.01018 30.2814C9.14668 30.4179 9.30928 30.5256 9.48827 30.5979C9.66726 30.6702 9.85899 30.7057 10.052 30.7022C10.245 30.6988 10.4354 30.6566 10.6117 30.578C10.788 30.4995 10.9467 30.3862 11.0783 30.2449L21.5625 19.7608L28.6925 26.8908C28.962 27.16 29.3274 27.3112 29.7083 27.3112C30.0893 27.3112 30.4546 27.16 30.7242 26.8908L42.7033 14.9116Z" fill="#0D5834"/>
</svg>
