<svg width="30" height="30" viewBox="0 0 30 30" fill="none" xmlns="http://www.w3.org/2000/svg">
<path d="M14.625 0C6.561 0 0 6.561 0 14.625C0 22.689 6.561 29.25 14.625 29.25C22.689 29.25 29.25 22.689 29.25 14.625C29.25 6.561 22.689 0 14.625 0ZM14.625 2.25C21.4729 2.25 27 7.77713 27 14.625C27 21.4729 21.4729 27 14.625 27C7.77713 27 2.25 21.4729 2.25 14.625C2.25 7.77713 7.77713 2.25 14.625 2.25ZM13.5 7.875V13.5H7.875V15.75H13.5V21.375H15.75V15.75H21.375V13.5H15.75V7.875H13.5Z" fill="black"/>
</svg>
