<svg width="13" height="10" viewBox="0 0 13 10" fill="none" xmlns="http://www.w3.org/2000/svg">
<path d="M7.71999 1.29871C7.6463 1.23005 7.5872 1.14725 7.54621 1.05525C7.50522 0.963247 7.48317 0.863934 7.4814 0.763231C7.47962 0.662528 7.49814 0.562499 7.53587 0.46911C7.57359 0.375722 7.62973 0.290888 7.70095 0.21967C7.77217 0.148451 7.857 0.0923064 7.95039 0.0545854C8.04378 0.0168643 8.14381 -0.00166006 8.24451 0.000116722C8.34521 0.00189351 8.44453 0.023935 8.53653 0.064927C8.62853 0.105919 8.71133 0.165021 8.77999 0.238708L12.78 4.23871C12.9204 4.37933 12.9993 4.56996 12.9993 4.76871C12.9993 4.96746 12.9204 5.15808 12.78 5.29871L8.77999 9.29871C8.71133 9.3724 8.62853 9.4315 8.53653 9.47249C8.44453 9.51348 8.34521 9.53552 8.24451 9.5373C8.14381 9.53908 8.04378 9.52055 7.95039 9.48283C7.857 9.44511 7.77217 9.38896 7.70095 9.31775C7.62973 9.24653 7.57359 9.16169 7.53587 9.06831C7.49814 8.97492 7.47962 8.87489 7.4814 8.77419C7.48317 8.67348 7.50522 8.57417 7.54621 8.48217C7.5872 8.39017 7.6463 8.30737 7.71999 8.23871L10.44 5.51871L0.749989 5.51871C0.551076 5.51871 0.360311 5.43969 0.219658 5.29904C0.0790052 5.15839 -1.14441e-05 4.96762 -1.14441e-05 4.76871C-1.14441e-05 4.5698 0.0790052 4.37903 0.219658 4.23838C0.360311 4.09773 0.551076 4.01871 0.749989 4.01871L10.44 4.01871L7.71999 1.29871Z" fill="#0D5834"/>
</svg>
