<svg width="20" height="20" viewBox="0 0 20 20" fill="none" xmlns="http://www.w3.org/2000/svg">
<path d="M8.33366 3.33331L6.66699 4.99998" stroke="#0D5834" stroke-width="1.66667" stroke-linecap="round" stroke-linejoin="round"/>
<path d="M14.167 15.8333V17.5" stroke="#0D5834" stroke-width="1.66667" stroke-linecap="round" stroke-linejoin="round"/>
<path d="M1.66699 10H18.3337" stroke="#0D5834" stroke-width="1.66667" stroke-linecap="round" stroke-linejoin="round"/>
<path d="M5.83301 15.8333V17.5" stroke="#0D5834" stroke-width="1.66667" stroke-linecap="round" stroke-linejoin="round"/>
<path d="M7.49967 4.16664L6.35051 3.01748C6.10952 2.77537 5.80354 2.60828 5.46957 2.53643C5.13561 2.46458 4.78799 2.49104 4.46875 2.61262C4.14952 2.73419 3.87235 2.94567 3.67079 3.22147C3.46922 3.49727 3.3519 3.82556 3.33301 4.16664V14.1666C3.33301 14.6087 3.5086 15.0326 3.82116 15.3452C4.13372 15.6577 4.55765 15.8333 4.99967 15.8333H14.9997C15.4417 15.8333 15.8656 15.6577 16.1782 15.3452C16.4907 15.0326 16.6663 14.6087 16.6663 14.1666V9.99998" stroke="#0D5834" stroke-width="1.66667" stroke-linecap="round" stroke-linejoin="round"/>
</svg>
