<svg width="20" height="20" viewBox="0 0 20 20" fill="none" xmlns="http://www.w3.org/2000/svg">
<path d="M6.66667 2.5H4.16667C3.72464 2.5 3.30072 2.67559 2.98816 2.98816C2.67559 3.30072 2.5 3.72464 2.5 4.16667V6.66667" stroke="#0D5834" stroke-width="1.66667" stroke-linecap="round" stroke-linejoin="round"/>
<path d="M17.4997 6.66667V4.16667C17.4997 3.72464 17.3241 3.30072 17.0115 2.98816C16.699 2.67559 16.275 2.5 15.833 2.5H13.333" stroke="#0D5834" stroke-width="1.66667" stroke-linecap="round" stroke-linejoin="round"/>
<path d="M2.5 13.3333V15.8333C2.5 16.2753 2.67559 16.6993 2.98816 17.0118C3.30072 17.3244 3.72464 17.5 4.16667 17.5H6.66667" stroke="#0D5834" stroke-width="1.66667" stroke-linecap="round" stroke-linejoin="round"/>
<path d="M13.333 17.5H15.833C16.275 17.5 16.699 17.3244 17.0115 17.0118C17.3241 16.6993 17.4997 16.2753 17.4997 15.8333V13.3333" stroke="#0D5834" stroke-width="1.66667" stroke-linecap="round" stroke-linejoin="round"/>
</svg>
