<svg width="16" height="16" viewBox="0 0 16 16" fill="none" xmlns="http://www.w3.org/2000/svg">
<path d="M1.33301 6.33335C1.33302 5.59148 1.55807 4.86707 1.97843 4.25579C2.39879 3.64451 2.99469 3.17512 3.68741 2.90962C4.38014 2.64411 5.13711 2.59498 5.85835 2.76871C6.57959 2.94245 7.23116 3.33087 7.72701 3.88268C7.76193 3.92003 7.80415 3.9498 7.85106 3.97015C7.89796 3.9905 7.94855 4.00101 7.99967 4.00101C8.0508 4.00101 8.10139 3.9905 8.14829 3.97015C8.19519 3.9498 8.23742 3.92003 8.27234 3.88268C8.76663 3.32728 9.41835 2.93559 10.1408 2.75975C10.8632 2.58391 11.622 2.63225 12.3163 2.89834C13.0105 3.16443 13.6073 3.63565 14.0271 4.24928C14.4469 4.86292 14.6699 5.58986 14.6663 6.33335C14.6663 7.86002 13.6663 9.00002 12.6663 10L9.00501 13.542C8.88079 13.6847 8.72763 13.7993 8.5557 13.8782C8.38378 13.9571 8.19704 13.9986 8.00787 13.9998C7.8187 14.001 7.63144 13.9619 7.45853 13.8852C7.28562 13.8084 7.13103 13.6958 7.00501 13.5547L3.33301 10C2.33301 9.00002 1.33301 7.86668 1.33301 6.33335Z" stroke="#4A5565" stroke-width="1.33333" stroke-linecap="round" stroke-linejoin="round"/>
</svg>
